<svg xmlns="http://www.w3.org/2000/svg" width="1920" height="618" viewBox="0 0 1920 618" fill="none"><mask id="mask0_3393_7900" style="mask-type:alpha" maskUnits="userSpaceOnUse" x="0" y="0" width="1920" height="618"><rect width="1920" height="618" fill="white"></rect></mask><g mask="url(#mask0_3393_7900)"><g opacity="0.06"><path d="M29.3779 598.855C30.5757 598.855 31.5468 597.884 31.5468 596.686C31.5468 595.488 30.5757 594.518 29.3779 594.518C28.18 594.518 27.209 595.488 27.209 596.686C27.209 597.884 28.18 598.855 29.3779 598.855Z" fill="white"></path><path d="M67.333 598.855C68.5308 598.855 69.5018 597.884 69.5018 596.686C69.5018 595.488 68.5308 594.518 67.333 594.518C66.1351 594.518 65.1641 595.488 65.1641 596.686C65.1641 597.884 66.1351 598.855 67.333 598.855Z" fill="white"></path><path d="M105.288 598.855C106.486 598.855 107.457 597.884 107.457 596.686C107.457 595.488 106.486 594.518 105.288 594.518C104.09 594.518 103.119 595.488 103.119 596.686C103.119 597.884 104.09 598.855 105.288 598.855Z" fill="white"></path><path d="M143.245 598.855C144.443 598.855 145.414 597.884 145.414 596.686C145.414 595.488 144.443 594.518 143.245 594.518C142.047 594.518 141.076 595.488 141.076 596.686C141.076 597.884 142.047 598.855 143.245 598.855Z" fill="white"></path><path d="M181.2 598.855C182.398 598.855 183.369 597.884 183.369 596.686C183.369 595.488 182.398 594.518 181.2 594.518C180.002 594.518 179.031 595.488 179.031 596.686C179.031 597.884 180.002 598.855 181.2 598.855Z" fill="white"></path><path d="M219.155 598.855C220.353 598.855 221.324 597.884 221.324 596.686C221.324 595.488 220.353 594.518 219.155 594.518C217.957 594.518 216.986 595.488 216.986 596.686C216.986 597.884 217.957 598.855 219.155 598.855Z" fill="white"></path><path d="M257.11 598.855C258.308 598.855 259.279 597.884 259.279 596.686C259.279 595.488 258.308 594.518 257.11 594.518C255.912 594.518 254.941 595.488 254.941 596.686C254.941 597.884 255.912 598.855 257.11 598.855Z" fill="white"></path><path d="M295.067 598.855C296.265 598.855 297.236 597.884 297.236 596.686C297.236 595.488 296.265 594.518 295.067 594.518C293.869 594.518 292.898 595.488 292.898 596.686C292.898 597.884 293.869 598.855 295.067 598.855Z" fill="white"></path><path d="M333.022 598.855C334.22 598.855 335.191 597.884 335.191 596.686C335.191 595.488 334.22 594.518 333.022 594.518C331.825 594.518 330.854 595.488 330.854 596.686C330.854 597.884 331.825 598.855 333.022 598.855Z" fill="white"></path><path d="M370.977 598.855C372.175 598.855 373.146 597.884 373.146 596.686C373.146 595.488 372.175 594.518 370.977 594.518C369.78 594.518 368.809 595.488 368.809 596.686C368.809 597.884 369.78 598.855 370.977 598.855Z" fill="white"></path><path d="M408.933 598.855C410.13 598.855 411.101 597.884 411.101 596.686C411.101 595.488 410.13 594.518 408.933 594.518C407.735 594.518 406.764 595.488 406.764 596.686C406.764 597.884 407.735 598.855 408.933 598.855Z" fill="white"></path><path d="M446.89 598.855C448.087 598.855 449.058 597.884 449.058 596.686C449.058 595.488 448.087 594.518 446.89 594.518C445.692 594.518 444.721 595.488 444.721 596.686C444.721 597.884 445.692 598.855 446.89 598.855Z" fill="white"></path><path d="M522.8 598.855C523.998 598.855 524.969 597.884 524.969 596.686C524.969 595.488 523.998 594.518 522.8 594.518C521.602 594.518 520.631 595.488 520.631 596.686C520.631 597.884 521.602 598.855 522.8 598.855Z" fill="white"></path><path d="M484.845 598.855C486.042 598.855 487.014 597.884 487.014 596.686C487.014 595.488 486.042 594.518 484.845 594.518C483.647 594.518 482.676 595.488 482.676 596.686C482.676 597.884 483.647 598.855 484.845 598.855Z" fill="white"></path><path d="M560.755 598.855C561.953 598.855 562.924 597.884 562.924 596.686C562.924 595.488 561.953 594.518 560.755 594.518C559.557 594.518 558.586 595.488 558.586 596.686C558.586 597.884 559.557 598.855 560.755 598.855Z" fill="white"></path><path d="M598.712 598.855C599.91 598.855 600.881 597.884 600.881 596.686C600.881 595.488 599.91 594.518 598.712 594.518C597.514 594.518 596.543 595.488 596.543 596.686C596.543 597.884 597.514 598.855 598.712 598.855Z" fill="white"></path><path d="M636.667 598.855C637.865 598.855 638.836 597.884 638.836 596.686C638.836 595.488 637.865 594.518 636.667 594.518C635.469 594.518 634.498 595.488 634.498 596.686C634.498 597.884 635.469 598.855 636.667 598.855Z" fill="white"></path><path d="M674.622 598.855C675.82 598.855 676.791 597.884 676.791 596.686C676.791 595.488 675.82 594.518 674.622 594.518C673.424 594.518 672.453 595.488 672.453 596.686C672.453 597.884 673.424 598.855 674.622 598.855Z" fill="white"></path><path d="M712.577 598.855C713.775 598.855 714.746 597.884 714.746 596.686C714.746 595.488 713.775 594.518 712.577 594.518C711.379 594.518 710.408 595.488 710.408 596.686C710.408 597.884 711.379 598.855 712.577 598.855Z" fill="white"></path><path d="M750.534 598.855C751.732 598.855 752.703 597.884 752.703 596.686C752.703 595.488 751.732 594.518 750.534 594.518C749.336 594.518 748.365 595.488 748.365 596.686C748.365 597.884 749.336 598.855 750.534 598.855Z" fill="white"></path><path d="M788.489 598.855C789.687 598.855 790.658 597.884 790.658 596.686C790.658 595.488 789.687 594.518 788.489 594.518C787.291 594.518 786.32 595.488 786.32 596.686C786.32 597.884 787.291 598.855 788.489 598.855Z" fill="white"></path><path d="M826.444 598.855C827.642 598.855 828.613 597.884 828.613 596.686C828.613 595.488 827.642 594.518 826.444 594.518C825.246 594.518 824.275 595.488 824.275 596.686C824.275 597.884 825.246 598.855 826.444 598.855Z" fill="white"></path><path d="M864.399 598.855C865.597 598.855 866.568 597.884 866.568 596.686C866.568 595.488 865.597 594.518 864.399 594.518C863.202 594.518 862.23 595.488 862.23 596.686C862.23 597.884 863.202 598.855 864.399 598.855Z" fill="white"></path><path d="M902.356 598.855C903.554 598.855 904.525 597.884 904.525 596.686C904.525 595.488 903.554 594.518 902.356 594.518C901.159 594.518 900.188 595.488 900.188 596.686C900.188 597.884 901.159 598.855 902.356 598.855Z" fill="white"></path><path d="M940.311 598.855C941.509 598.855 942.48 597.884 942.48 596.686C942.48 595.488 941.509 594.518 940.311 594.518C939.114 594.518 938.143 595.488 938.143 596.686C938.143 597.884 939.114 598.855 940.311 598.855Z" fill="white"></path><path d="M978.267 598.855C979.464 598.855 980.435 597.884 980.435 596.686C980.435 595.488 979.464 594.518 978.267 594.518C977.069 594.518 976.098 595.488 976.098 596.686C976.098 597.884 977.069 598.855 978.267 598.855Z" fill="white"></path><path d="M1054.18 598.855C1055.38 598.855 1056.35 597.884 1056.35 596.686C1056.35 595.488 1055.38 594.518 1054.18 594.518C1052.98 594.518 1052.01 595.488 1052.01 596.686C1052.01 597.884 1052.98 598.855 1054.18 598.855Z" fill="white"></path><path d="M1016.22 598.855C1017.42 598.855 1018.39 597.884 1018.39 596.686C1018.39 595.488 1017.42 594.518 1016.22 594.518C1015.02 594.518 1014.05 595.488 1014.05 596.686C1014.05 597.884 1015.02 598.855 1016.22 598.855Z" fill="white"></path><path d="M1623.51 598.855C1624.71 598.855 1625.68 597.884 1625.68 596.686C1625.68 595.488 1624.71 594.518 1623.51 594.518C1622.31 594.518 1621.34 595.488 1621.34 596.686C1621.34 597.884 1622.31 598.855 1623.51 598.855Z" fill="white"></path><path d="M1661.47 598.855C1662.66 598.855 1663.63 597.884 1663.63 596.686C1663.63 595.488 1662.66 594.518 1661.47 594.518C1660.27 594.518 1659.3 595.488 1659.3 596.686C1659.3 597.884 1660.27 598.855 1661.47 598.855Z" fill="white"></path><path d="M1775.33 598.855C1776.53 598.855 1777.5 597.884 1777.5 596.686C1777.5 595.488 1776.53 594.518 1775.33 594.518C1774.14 594.518 1773.16 595.488 1773.16 596.686C1773.16 597.884 1774.14 598.855 1775.33 598.855Z" fill="white"></path><path d="M1813.29 598.855C1814.49 598.855 1815.46 597.884 1815.46 596.686C1815.46 595.488 1814.49 594.518 1813.29 594.518C1812.09 594.518 1811.12 595.488 1811.12 596.686C1811.12 597.884 1812.09 598.855 1813.29 598.855Z" fill="white"></path><path d="M1851.25 598.855C1852.44 598.855 1853.41 597.884 1853.41 596.686C1853.41 595.488 1852.44 594.518 1851.25 594.518C1850.05 594.518 1849.08 595.488 1849.08 596.686C1849.08 597.884 1850.05 598.855 1851.25 598.855Z" fill="white"></path><path d="M1889.2 598.855C1890.4 598.855 1891.37 597.884 1891.37 596.686C1891.37 595.488 1890.4 594.518 1889.2 594.518C1888 594.518 1887.03 595.488 1887.03 596.686C1887.03 597.884 1888 598.855 1889.2 598.855Z" fill="white"></path><path d="M1737.38 598.855C1738.58 598.855 1739.55 597.884 1739.55 596.686C1739.55 595.488 1738.58 594.518 1737.38 594.518C1736.18 594.518 1735.21 595.488 1735.21 596.686C1735.21 597.884 1736.18 598.855 1737.38 598.855Z" fill="white"></path><path d="M1699.42 598.855C1700.62 598.855 1701.59 597.884 1701.59 596.686C1701.59 595.488 1700.62 594.518 1699.42 594.518C1698.22 594.518 1697.25 595.488 1697.25 596.686C1697.25 597.884 1698.22 598.855 1699.42 598.855Z" fill="white"></path><path d="M1699.42 596.686C1700.02 596.686 1700.51 596.201 1700.51 595.602C1700.51 595.003 1700.02 594.518 1699.42 594.518C1698.82 594.518 1698.34 595.003 1698.34 595.602C1698.34 596.201 1698.82 596.686 1699.42 596.686Z" fill="white"></path><path d="M1092.13 598.855C1093.33 598.855 1094.3 597.884 1094.3 596.686C1094.3 595.488 1093.33 594.518 1092.13 594.518C1090.94 594.518 1089.96 595.488 1089.96 596.686C1089.96 597.884 1090.94 598.855 1092.13 598.855Z" fill="white"></path><path d="M1130.09 598.855C1131.29 598.855 1132.26 597.884 1132.26 596.686C1132.26 595.488 1131.29 594.518 1130.09 594.518C1128.89 594.518 1127.92 595.488 1127.92 596.686C1127.92 597.884 1128.89 598.855 1130.09 598.855Z" fill="white"></path><path d="M1168.04 598.855C1169.24 598.855 1170.21 597.884 1170.21 596.686C1170.21 595.488 1169.24 594.518 1168.04 594.518C1166.85 594.518 1165.88 595.488 1165.88 596.686C1165.88 597.884 1166.85 598.855 1168.04 598.855Z" fill="white"></path><path d="M1206 598.855C1207.2 598.855 1208.17 597.884 1208.17 596.686C1208.17 595.488 1207.2 594.518 1206 594.518C1204.8 594.518 1203.83 595.488 1203.83 596.686C1203.83 597.884 1204.8 598.855 1206 598.855Z" fill="white"></path><path d="M1243.96 598.855C1245.15 598.855 1246.12 597.884 1246.12 596.686C1246.12 595.488 1245.15 594.518 1243.96 594.518C1242.76 594.518 1241.79 595.488 1241.79 596.686C1241.79 597.884 1242.76 598.855 1243.96 598.855Z" fill="white"></path><path d="M1281.91 598.855C1283.11 598.855 1284.08 597.884 1284.08 596.686C1284.08 595.488 1283.11 594.518 1281.91 594.518C1280.71 594.518 1279.74 595.488 1279.74 596.686C1279.74 597.884 1280.71 598.855 1281.91 598.855Z" fill="white"></path><path d="M1319.87 598.855C1321.06 598.855 1322.03 597.884 1322.03 596.686C1322.03 595.488 1321.06 594.518 1319.87 594.518C1318.67 594.518 1317.7 595.488 1317.7 596.686C1317.7 597.884 1318.67 598.855 1319.87 598.855Z" fill="white"></path><path d="M1357.82 598.855C1359.02 598.855 1359.99 597.884 1359.99 596.686C1359.99 595.488 1359.02 594.518 1357.82 594.518C1356.63 594.518 1355.65 595.488 1355.65 596.686C1355.65 597.884 1356.63 598.855 1357.82 598.855Z" fill="white"></path><path d="M1395.78 598.855C1396.98 598.855 1397.95 597.884 1397.95 596.686C1397.95 595.488 1396.98 594.518 1395.78 594.518C1394.58 594.518 1393.61 595.488 1393.61 596.686C1393.61 597.884 1394.58 598.855 1395.78 598.855Z" fill="white"></path><path d="M1433.73 598.855C1434.93 598.855 1435.9 597.884 1435.9 596.686C1435.9 595.488 1434.93 594.518 1433.73 594.518C1432.54 594.518 1431.56 595.488 1431.56 596.686C1431.56 597.884 1432.54 598.855 1433.73 598.855Z" fill="white"></path><path d="M1471.69 598.855C1472.89 598.855 1473.86 597.884 1473.86 596.686C1473.86 595.488 1472.89 594.518 1471.69 594.518C1470.49 594.518 1469.52 595.488 1469.52 596.686C1469.52 597.884 1470.49 598.855 1471.69 598.855Z" fill="white"></path><path d="M1585.56 598.855C1586.75 598.855 1587.72 597.884 1587.72 596.686C1587.72 595.488 1586.75 594.518 1585.56 594.518C1584.36 594.518 1583.39 595.488 1583.39 596.686C1583.39 597.884 1584.36 598.855 1585.56 598.855Z" fill="white"></path><path d="M1547.6 598.855C1548.8 598.855 1549.77 597.884 1549.77 596.686C1549.77 595.488 1548.8 594.518 1547.6 594.518C1546.4 594.518 1545.43 595.488 1545.43 596.686C1545.43 597.884 1546.4 598.855 1547.6 598.855Z" fill="white"></path><path d="M1509.65 598.855C1510.84 598.855 1511.81 597.884 1511.81 596.686C1511.81 595.488 1510.84 594.518 1509.65 594.518C1508.45 594.518 1507.48 595.488 1507.48 596.686C1507.48 597.884 1508.45 598.855 1509.65 598.855Z" fill="white"></path><path d="M29.3779 561.991C30.5757 561.991 31.5468 561.02 31.5468 559.823C31.5468 558.625 30.5757 557.654 29.3779 557.654C28.18 557.654 27.209 558.625 27.209 559.823C27.209 561.02 28.18 561.991 29.3779 561.991Z" fill="white"></path><path d="M67.333 561.991C68.5308 561.991 69.5018 561.02 69.5018 559.823C69.5018 558.625 68.5308 557.654 67.333 557.654C66.1351 557.654 65.1641 558.625 65.1641 559.823C65.1641 561.02 66.1351 561.991 67.333 561.991Z" fill="white"></path><path d="M105.288 561.991C106.486 561.991 107.457 561.02 107.457 559.823C107.457 558.625 106.486 557.654 105.288 557.654C104.09 557.654 103.119 558.625 103.119 559.823C103.119 561.02 104.09 561.991 105.288 561.991Z" fill="white"></path><path d="M143.245 561.991C144.443 561.991 145.414 561.02 145.414 559.823C145.414 558.625 144.443 557.654 143.245 557.654C142.047 557.654 141.076 558.625 141.076 559.823C141.076 561.02 142.047 561.991 143.245 561.991Z" fill="white"></path><path d="M181.2 561.991C182.398 561.991 183.369 561.02 183.369 559.823C183.369 558.625 182.398 557.654 181.2 557.654C180.002 557.654 179.031 558.625 179.031 559.823C179.031 561.02 180.002 561.991 181.2 561.991Z" fill="white"></path><path d="M219.155 561.991C220.353 561.991 221.324 561.02 221.324 559.823C221.324 558.625 220.353 557.654 219.155 557.654C217.957 557.654 216.986 558.625 216.986 559.823C216.986 561.02 217.957 561.991 219.155 561.991Z" fill="white"></path><path d="M257.11 561.991C258.308 561.991 259.279 561.02 259.279 559.823C259.279 558.625 258.308 557.654 257.11 557.654C255.912 557.654 254.941 558.625 254.941 559.823C254.941 561.02 255.912 561.991 257.11 561.991Z" fill="white"></path><path d="M295.067 561.991C296.265 561.991 297.236 561.02 297.236 559.823C297.236 558.625 296.265 557.654 295.067 557.654C293.869 557.654 292.898 558.625 292.898 559.823C292.898 561.02 293.869 561.991 295.067 561.991Z" fill="white"></path><path d="M333.022 561.991C334.22 561.991 335.191 561.02 335.191 559.823C335.191 558.625 334.22 557.654 333.022 557.654C331.825 557.654 330.854 558.625 330.854 559.823C330.854 561.02 331.825 561.991 333.022 561.991Z" fill="white"></path><path d="M370.977 561.991C372.175 561.991 373.146 561.02 373.146 559.823C373.146 558.625 372.175 557.654 370.977 557.654C369.78 557.654 368.809 558.625 368.809 559.823C368.809 561.02 369.78 561.991 370.977 561.991Z" fill="white"></path><path d="M408.933 561.991C410.13 561.991 411.101 561.02 411.101 559.823C411.101 558.625 410.13 557.654 408.933 557.654C407.735 557.654 406.764 558.625 406.764 559.823C406.764 561.02 407.735 561.991 408.933 561.991Z" fill="white"></path><path d="M446.89 561.991C448.087 561.991 449.058 561.02 449.058 559.823C449.058 558.625 448.087 557.654 446.89 557.654C445.692 557.654 444.721 558.625 444.721 559.823C444.721 561.02 445.692 561.991 446.89 561.991Z" fill="white"></path><path d="M522.8 561.991C523.998 561.991 524.969 561.02 524.969 559.823C524.969 558.625 523.998 557.654 522.8 557.654C521.602 557.654 520.631 558.625 520.631 559.823C520.631 561.02 521.602 561.991 522.8 561.991Z" fill="white"></path><path d="M484.845 561.991C486.042 561.991 487.014 561.02 487.014 559.823C487.014 558.625 486.042 557.654 484.845 557.654C483.647 557.654 482.676 558.625 482.676 559.823C482.676 561.02 483.647 561.991 484.845 561.991Z" fill="white"></path><path d="M560.755 561.991C561.953 561.991 562.924 561.02 562.924 559.823C562.924 558.625 561.953 557.654 560.755 557.654C559.557 557.654 558.586 558.625 558.586 559.823C558.586 561.02 559.557 561.991 560.755 561.991Z" fill="white"></path><path d="M598.712 561.991C599.91 561.991 600.881 561.02 600.881 559.823C600.881 558.625 599.91 557.654 598.712 557.654C597.514 557.654 596.543 558.625 596.543 559.823C596.543 561.02 597.514 561.991 598.712 561.991Z" fill="white"></path><path d="M636.667 561.991C637.865 561.991 638.836 561.02 638.836 559.823C638.836 558.625 637.865 557.654 636.667 557.654C635.469 557.654 634.498 558.625 634.498 559.823C634.498 561.02 635.469 561.991 636.667 561.991Z" fill="white"></path><path d="M674.622 561.991C675.82 561.991 676.791 561.02 676.791 559.823C676.791 558.625 675.82 557.654 674.622 557.654C673.424 557.654 672.453 558.625 672.453 559.823C672.453 561.02 673.424 561.991 674.622 561.991Z" fill="white"></path><path d="M712.577 561.991C713.775 561.991 714.746 561.02 714.746 559.823C714.746 558.625 713.775 557.654 712.577 557.654C711.379 557.654 710.408 558.625 710.408 559.823C710.408 561.02 711.379 561.991 712.577 561.991Z" fill="white"></path><path d="M750.534 561.991C751.732 561.991 752.703 561.02 752.703 559.823C752.703 558.625 751.732 557.654 750.534 557.654C749.336 557.654 748.365 558.625 748.365 559.823C748.365 561.02 749.336 561.991 750.534 561.991Z" fill="white"></path><path d="M788.489 561.991C789.687 561.991 790.658 561.02 790.658 559.823C790.658 558.625 789.687 557.654 788.489 557.654C787.291 557.654 786.32 558.625 786.32 559.823C786.32 561.02 787.291 561.991 788.489 561.991Z" fill="white"></path><path d="M826.444 561.991C827.642 561.991 828.613 561.02 828.613 559.823C828.613 558.625 827.642 557.654 826.444 557.654C825.246 557.654 824.275 558.625 824.275 559.823C824.275 561.02 825.246 561.991 826.444 561.991Z" fill="white"></path><path d="M864.399 561.991C865.597 561.991 866.568 561.02 866.568 559.823C866.568 558.625 865.597 557.654 864.399 557.654C863.202 557.654 862.23 558.625 862.23 559.823C862.23 561.02 863.202 561.991 864.399 561.991Z" fill="white"></path><path d="M902.356 561.991C903.554 561.991 904.525 561.02 904.525 559.823C904.525 558.625 903.554 557.654 902.356 557.654C901.159 557.654 900.188 558.625 900.188 559.823C900.188 561.02 901.159 561.991 902.356 561.991Z" fill="white"></path><path d="M940.311 561.991C941.509 561.991 942.48 561.02 942.48 559.823C942.48 558.625 941.509 557.654 940.311 557.654C939.114 557.654 938.143 558.625 938.143 559.823C938.143 561.02 939.114 561.991 940.311 561.991Z" fill="white"></path><path d="M978.267 561.991C979.464 561.991 980.435 561.02 980.435 559.823C980.435 558.625 979.464 557.654 978.267 557.654C977.069 557.654 976.098 558.625 976.098 559.823C976.098 561.02 977.069 561.991 978.267 561.991Z" fill="white"></path><path d="M1054.18 561.991C1055.38 561.991 1056.35 561.02 1056.35 559.823C1056.35 558.625 1055.38 557.654 1054.18 557.654C1052.98 557.654 1052.01 558.625 1052.01 559.823C1052.01 561.02 1052.98 561.991 1054.18 561.991Z" fill="white"></path><path d="M1016.22 561.991C1017.42 561.991 1018.39 561.02 1018.39 559.823C1018.39 558.625 1017.42 557.654 1016.22 557.654C1015.02 557.654 1014.05 558.625 1014.05 559.823C1014.05 561.02 1015.02 561.991 1016.22 561.991Z" fill="white"></path><path d="M1623.51 561.991C1624.71 561.991 1625.68 561.02 1625.68 559.823C1625.68 558.625 1624.71 557.654 1623.51 557.654C1622.31 557.654 1621.34 558.625 1621.34 559.823C1621.34 561.02 1622.31 561.991 1623.51 561.991Z" fill="white"></path><path d="M1661.47 561.991C1662.66 561.991 1663.63 561.02 1663.63 559.823C1663.63 558.625 1662.66 557.654 1661.47 557.654C1660.27 557.654 1659.3 558.625 1659.3 559.823C1659.3 561.02 1660.27 561.991 1661.47 561.991Z" fill="white"></path><path d="M1775.33 561.991C1776.53 561.991 1777.5 561.02 1777.5 559.823C1777.5 558.625 1776.53 557.654 1775.33 557.654C1774.14 557.654 1773.16 558.625 1773.16 559.823C1773.16 561.02 1774.14 561.991 1775.33 561.991Z" fill="white"></path><path d="M1813.29 561.991C1814.49 561.991 1815.46 561.02 1815.46 559.823C1815.46 558.625 1814.49 557.654 1813.29 557.654C1812.09 557.654 1811.12 558.625 1811.12 559.823C1811.12 561.02 1812.09 561.991 1813.29 561.991Z" fill="white"></path><path d="M1851.25 561.991C1852.44 561.991 1853.41 561.02 1853.41 559.823C1853.41 558.625 1852.44 557.654 1851.25 557.654C1850.05 557.654 1849.08 558.625 1849.08 559.823C1849.08 561.02 1850.05 561.991 1851.25 561.991Z" fill="white"></path><path d="M1889.2 561.991C1890.4 561.991 1891.37 561.02 1891.37 559.823C1891.37 558.625 1890.4 557.654 1889.2 557.654C1888 557.654 1887.03 558.625 1887.03 559.823C1887.03 561.02 1888 561.991 1889.2 561.991Z" fill="white"></path><path d="M1737.38 561.991C1738.58 561.991 1739.55 561.02 1739.55 559.823C1739.55 558.625 1738.58 557.654 1737.38 557.654C1736.18 557.654 1735.21 558.625 1735.21 559.823C1735.21 561.02 1736.18 561.991 1737.38 561.991Z" fill="white"></path><path d="M1699.42 561.991C1700.62 561.991 1701.59 561.02 1701.59 559.823C1701.59 558.625 1700.62 557.654 1699.42 557.654C1698.22 557.654 1697.25 558.625 1697.25 559.823C1697.25 561.02 1698.22 561.991 1699.42 561.991Z" fill="white"></path><path d="M1699.42 559.823C1700.02 559.823 1700.51 559.337 1700.51 558.739C1700.51 558.14 1700.02 557.654 1699.42 557.654C1698.82 557.654 1698.34 558.14 1698.34 558.739C1698.34 559.337 1698.82 559.823 1699.42 559.823Z" fill="white"></path><path d="M1092.13 561.991C1093.33 561.991 1094.3 561.02 1094.3 559.823C1094.3 558.625 1093.33 557.654 1092.13 557.654C1090.94 557.654 1089.96 558.625 1089.96 559.823C1089.96 561.02 1090.94 561.991 1092.13 561.991Z" fill="white"></path><path d="M1130.09 561.991C1131.29 561.991 1132.26 561.02 1132.26 559.823C1132.26 558.625 1131.29 557.654 1130.09 557.654C1128.89 557.654 1127.92 558.625 1127.92 559.823C1127.92 561.02 1128.89 561.991 1130.09 561.991Z" fill="white"></path><path d="M1168.04 561.991C1169.24 561.991 1170.21 561.02 1170.21 559.823C1170.21 558.625 1169.24 557.654 1168.04 557.654C1166.85 557.654 1165.88 558.625 1165.88 559.823C1165.88 561.02 1166.85 561.991 1168.04 561.991Z" fill="white"></path><path d="M1206 561.991C1207.2 561.991 1208.17 561.02 1208.17 559.823C1208.17 558.625 1207.2 557.654 1206 557.654C1204.8 557.654 1203.83 558.625 1203.83 559.823C1203.83 561.02 1204.8 561.991 1206 561.991Z" fill="white"></path><path d="M1243.96 561.991C1245.15 561.991 1246.12 561.02 1246.12 559.823C1246.12 558.625 1245.15 557.654 1243.96 557.654C1242.76 557.654 1241.79 558.625 1241.79 559.823C1241.79 561.02 1242.76 561.991 1243.96 561.991Z" fill="white"></path><path d="M1281.91 561.991C1283.11 561.991 1284.08 561.02 1284.08 559.823C1284.08 558.625 1283.11 557.654 1281.91 557.654C1280.71 557.654 1279.74 558.625 1279.74 559.823C1279.74 561.02 1280.71 561.991 1281.91 561.991Z" fill="white"></path><path d="M1319.87 561.991C1321.06 561.991 1322.03 561.02 1322.03 559.823C1322.03 558.625 1321.06 557.654 1319.87 557.654C1318.67 557.654 1317.7 558.625 1317.7 559.823C1317.7 561.02 1318.67 561.991 1319.87 561.991Z" fill="white"></path><path d="M1357.82 561.991C1359.02 561.991 1359.99 561.02 1359.99 559.823C1359.99 558.625 1359.02 557.654 1357.82 557.654C1356.63 557.654 1355.65 558.625 1355.65 559.823C1355.65 561.02 1356.63 561.991 1357.82 561.991Z" fill="white"></path><path d="M1395.78 561.991C1396.98 561.991 1397.95 561.02 1397.95 559.823C1397.95 558.625 1396.98 557.654 1395.78 557.654C1394.58 557.654 1393.61 558.625 1393.61 559.823C1393.61 561.02 1394.58 561.991 1395.78 561.991Z" fill="white"></path><path d="M1433.73 561.991C1434.93 561.991 1435.9 561.02 1435.9 559.823C1435.9 558.625 1434.93 557.654 1433.73 557.654C1432.54 557.654 1431.56 558.625 1431.56 559.823C1431.56 561.02 1432.54 561.991 1433.73 561.991Z" fill="white"></path><path d="M1471.69 561.991C1472.89 561.991 1473.86 561.02 1473.86 559.823C1473.86 558.625 1472.89 557.654 1471.69 557.654C1470.49 557.654 1469.52 558.625 1469.52 559.823C1469.52 561.02 1470.49 561.991 1471.69 561.991Z" fill="white"></path><path d="M1585.56 561.991C1586.75 561.991 1587.72 561.02 1587.72 559.823C1587.72 558.625 1586.75 557.654 1585.56 557.654C1584.36 557.654 1583.39 558.625 1583.39 559.823C1583.39 561.02 1584.36 561.991 1585.56 561.991Z" fill="white"></path><path d="M1547.6 561.991C1548.8 561.991 1549.77 561.02 1549.77 559.823C1549.77 558.625 1548.8 557.654 1547.6 557.654C1546.4 557.654 1545.43 558.625 1545.43 559.823C1545.43 561.02 1546.4 561.991 1547.6 561.991Z" fill="white"></path><path d="M1509.65 561.991C1510.84 561.991 1511.81 561.02 1511.81 559.823C1511.81 558.625 1510.84 557.654 1509.65 557.654C1508.45 557.654 1507.48 558.625 1507.48 559.823C1507.48 561.02 1508.45 561.991 1509.65 561.991Z" fill="white"></path><path d="M29.3779 525.127C30.5757 525.127 31.5468 524.156 31.5468 522.958C31.5468 521.761 30.5757 520.79 29.3779 520.79C28.18 520.79 27.209 521.761 27.209 522.958C27.209 524.156 28.18 525.127 29.3779 525.127Z" fill="white"></path><path d="M67.333 525.127C68.5308 525.127 69.5018 524.156 69.5018 522.958C69.5018 521.761 68.5308 520.79 67.333 520.79C66.1351 520.79 65.1641 521.761 65.1641 522.958C65.1641 524.156 66.1351 525.127 67.333 525.127Z" fill="white"></path><path d="M105.288 525.127C106.486 525.127 107.457 524.156 107.457 522.958C107.457 521.761 106.486 520.79 105.288 520.79C104.09 520.79 103.119 521.761 103.119 522.958C103.119 524.156 104.09 525.127 105.288 525.127Z" fill="white"></path><path d="M143.245 525.127C144.443 525.127 145.414 524.156 145.414 522.958C145.414 521.761 144.443 520.79 143.245 520.79C142.047 520.79 141.076 521.761 141.076 522.958C141.076 524.156 142.047 525.127 143.245 525.127Z" fill="white"></path><path d="M181.2 525.127C182.398 525.127 183.369 524.156 183.369 522.958C183.369 521.761 182.398 520.79 181.2 520.79C180.002 520.79 179.031 521.761 179.031 522.958C179.031 524.156 180.002 525.127 181.2 525.127Z" fill="white"></path><path d="M219.155 525.127C220.353 525.127 221.324 524.156 221.324 522.958C221.324 521.761 220.353 520.79 219.155 520.79C217.957 520.79 216.986 521.761 216.986 522.958C216.986 524.156 217.957 525.127 219.155 525.127Z" fill="white"></path><path d="M257.11 525.127C258.308 525.127 259.279 524.156 259.279 522.958C259.279 521.761 258.308 520.79 257.11 520.79C255.912 520.79 254.941 521.761 254.941 522.958C254.941 524.156 255.912 525.127 257.11 525.127Z" fill="white"></path><path d="M295.067 525.127C296.265 525.127 297.236 524.156 297.236 522.958C297.236 521.761 296.265 520.79 295.067 520.79C293.869 520.79 292.898 521.761 292.898 522.958C292.898 524.156 293.869 525.127 295.067 525.127Z" fill="white"></path><path d="M333.022 525.127C334.22 525.127 335.191 524.156 335.191 522.958C335.191 521.761 334.22 520.79 333.022 520.79C331.825 520.79 330.854 521.761 330.854 522.958C330.854 524.156 331.825 525.127 333.022 525.127Z" fill="white"></path><path d="M370.977 525.127C372.175 525.127 373.146 524.156 373.146 522.958C373.146 521.761 372.175 520.79 370.977 520.79C369.78 520.79 368.809 521.761 368.809 522.958C368.809 524.156 369.78 525.127 370.977 525.127Z" fill="white"></path><path d="M408.933 525.127C410.13 525.127 411.101 524.156 411.101 522.958C411.101 521.761 410.13 520.79 408.933 520.79C407.735 520.79 406.764 521.761 406.764 522.958C406.764 524.156 407.735 525.127 408.933 525.127Z" fill="white"></path><path d="M446.89 525.127C448.087 525.127 449.058 524.156 449.058 522.958C449.058 521.761 448.087 520.79 446.89 520.79C445.692 520.79 444.721 521.761 444.721 522.958C444.721 524.156 445.692 525.127 446.89 525.127Z" fill="white"></path><path d="M522.8 525.127C523.998 525.127 524.969 524.156 524.969 522.958C524.969 521.761 523.998 520.79 522.8 520.79C521.602 520.79 520.631 521.761 520.631 522.958C520.631 524.156 521.602 525.127 522.8 525.127Z" fill="white"></path><path d="M484.845 525.127C486.042 525.127 487.014 524.156 487.014 522.958C487.014 521.761 486.042 520.79 484.845 520.79C483.647 520.79 482.676 521.761 482.676 522.958C482.676 524.156 483.647 525.127 484.845 525.127Z" fill="white"></path><path d="M560.755 525.127C561.953 525.127 562.924 524.156 562.924 522.958C562.924 521.761 561.953 520.79 560.755 520.79C559.557 520.79 558.586 521.761 558.586 522.958C558.586 524.156 559.557 525.127 560.755 525.127Z" fill="white"></path><path d="M598.712 525.127C599.91 525.127 600.881 524.156 600.881 522.958C600.881 521.761 599.91 520.79 598.712 520.79C597.514 520.79 596.543 521.761 596.543 522.958C596.543 524.156 597.514 525.127 598.712 525.127Z" fill="white"></path><path d="M636.667 525.127C637.865 525.127 638.836 524.156 638.836 522.958C638.836 521.761 637.865 520.79 636.667 520.79C635.469 520.79 634.498 521.761 634.498 522.958C634.498 524.156 635.469 525.127 636.667 525.127Z" fill="white"></path><path d="M674.622 525.127C675.82 525.127 676.791 524.156 676.791 522.958C676.791 521.761 675.82 520.79 674.622 520.79C673.424 520.79 672.453 521.761 672.453 522.958C672.453 524.156 673.424 525.127 674.622 525.127Z" fill="white"></path><path d="M712.577 525.127C713.775 525.127 714.746 524.156 714.746 522.958C714.746 521.761 713.775 520.79 712.577 520.79C711.379 520.79 710.408 521.761 710.408 522.958C710.408 524.156 711.379 525.127 712.577 525.127Z" fill="white"></path><path d="M750.534 525.127C751.732 525.127 752.703 524.156 752.703 522.958C752.703 521.761 751.732 520.79 750.534 520.79C749.336 520.79 748.365 521.761 748.365 522.958C748.365 524.156 749.336 525.127 750.534 525.127Z" fill="white"></path><path d="M788.489 525.127C789.687 525.127 790.658 524.156 790.658 522.958C790.658 521.761 789.687 520.79 788.489 520.79C787.291 520.79 786.32 521.761 786.32 522.958C786.32 524.156 787.291 525.127 788.489 525.127Z" fill="white"></path><path d="M826.444 525.127C827.642 525.127 828.613 524.156 828.613 522.958C828.613 521.761 827.642 520.79 826.444 520.79C825.246 520.79 824.275 521.761 824.275 522.958C824.275 524.156 825.246 525.127 826.444 525.127Z" fill="white"></path><path d="M864.399 525.127C865.597 525.127 866.568 524.156 866.568 522.958C866.568 521.761 865.597 520.79 864.399 520.79C863.202 520.79 862.23 521.761 862.23 522.958C862.23 524.156 863.202 525.127 864.399 525.127Z" fill="white"></path><path d="M902.356 525.127C903.554 525.127 904.525 524.156 904.525 522.958C904.525 521.761 903.554 520.79 902.356 520.79C901.159 520.79 900.188 521.761 900.188 522.958C900.188 524.156 901.159 525.127 902.356 525.127Z" fill="white"></path><path d="M940.311 525.127C941.509 525.127 942.48 524.156 942.48 522.958C942.48 521.761 941.509 520.79 940.311 520.79C939.114 520.79 938.143 521.761 938.143 522.958C938.143 524.156 939.114 525.127 940.311 525.127Z" fill="white"></path><path d="M978.267 525.127C979.464 525.127 980.435 524.156 980.435 522.958C980.435 521.761 979.464 520.79 978.267 520.79C977.069 520.79 976.098 521.761 976.098 522.958C976.098 524.156 977.069 525.127 978.267 525.127Z" fill="white"></path><path d="M1054.18 525.127C1055.38 525.127 1056.35 524.156 1056.35 522.958C1056.35 521.761 1055.38 520.79 1054.18 520.79C1052.98 520.79 1052.01 521.761 1052.01 522.958C1052.01 524.156 1052.98 525.127 1054.18 525.127Z" fill="white"></path><path d="M1016.22 525.127C1017.42 525.127 1018.39 524.156 1018.39 522.958C1018.39 521.761 1017.42 520.79 1016.22 520.79C1015.02 520.79 1014.05 521.761 1014.05 522.958C1014.05 524.156 1015.02 525.127 1016.22 525.127Z" fill="white"></path><path d="M1623.51 525.127C1624.71 525.127 1625.68 524.156 1625.68 522.958C1625.68 521.761 1624.71 520.79 1623.51 520.79C1622.31 520.79 1621.34 521.761 1621.34 522.958C1621.34 524.156 1622.31 525.127 1623.51 525.127Z" fill="white"></path><path d="M1661.47 525.127C1662.66 525.127 1663.63 524.156 1663.63 522.958C1663.63 521.761 1662.66 520.79 1661.47 520.79C1660.27 520.79 1659.3 521.761 1659.3 522.958C1659.3 524.156 1660.27 525.127 1661.47 525.127Z" fill="white"></path><path d="M1775.33 525.127C1776.53 525.127 1777.5 524.156 1777.5 522.958C1777.5 521.761 1776.53 520.79 1775.33 520.79C1774.14 520.79 1773.16 521.761 1773.16 522.958C1773.16 524.156 1774.14 525.127 1775.33 525.127Z" fill="white"></path><path d="M1813.29 525.127C1814.49 525.127 1815.46 524.156 1815.46 522.958C1815.46 521.761 1814.49 520.79 1813.29 520.79C1812.09 520.79 1811.12 521.761 1811.12 522.958C1811.12 524.156 1812.09 525.127 1813.29 525.127Z" fill="white"></path><path d="M1851.25 525.127C1852.44 525.127 1853.41 524.156 1853.41 522.958C1853.41 521.761 1852.44 520.79 1851.25 520.79C1850.05 520.79 1849.08 521.761 1849.08 522.958C1849.08 524.156 1850.05 525.127 1851.25 525.127Z" fill="white"></path><path d="M1889.2 525.127C1890.4 525.127 1891.37 524.156 1891.37 522.958C1891.37 521.761 1890.4 520.79 1889.2 520.79C1888 520.79 1887.03 521.761 1887.03 522.958C1887.03 524.156 1888 525.127 1889.2 525.127Z" fill="white"></path><path d="M1737.38 525.127C1738.58 525.127 1739.55 524.156 1739.55 522.958C1739.55 521.761 1738.58 520.79 1737.38 520.79C1736.18 520.79 1735.21 521.761 1735.21 522.958C1735.21 524.156 1736.18 525.127 1737.38 525.127Z" fill="white"></path><path d="M1699.42 525.127C1700.62 525.127 1701.59 524.156 1701.59 522.958C1701.59 521.761 1700.62 520.79 1699.42 520.79C1698.22 520.79 1697.25 521.761 1697.25 522.958C1697.25 524.156 1698.22 525.127 1699.42 525.127Z" fill="white"></path><path d="M1699.42 522.958C1700.02 522.958 1700.51 522.473 1700.51 521.874C1700.51 521.275 1700.02 520.79 1699.42 520.79C1698.82 520.79 1698.34 521.275 1698.34 521.874C1698.34 522.473 1698.82 522.958 1699.42 522.958Z" fill="white"></path><path d="M1092.13 525.127C1093.33 525.127 1094.3 524.156 1094.3 522.958C1094.3 521.761 1093.33 520.79 1092.13 520.79C1090.94 520.79 1089.96 521.761 1089.96 522.958C1089.96 524.156 1090.94 525.127 1092.13 525.127Z" fill="white"></path><path d="M1130.09 525.127C1131.29 525.127 1132.26 524.156 1132.26 522.958C1132.26 521.761 1131.29 520.79 1130.09 520.79C1128.89 520.79 1127.92 521.761 1127.92 522.958C1127.92 524.156 1128.89 525.127 1130.09 525.127Z" fill="white"></path><path d="M1168.04 525.127C1169.24 525.127 1170.21 524.156 1170.21 522.958C1170.21 521.761 1169.24 520.79 1168.04 520.79C1166.85 520.79 1165.88 521.761 1165.88 522.958C1165.88 524.156 1166.85 525.127 1168.04 525.127Z" fill="white"></path><path d="M1206 525.127C1207.2 525.127 1208.17 524.156 1208.17 522.958C1208.17 521.761 1207.2 520.79 1206 520.79C1204.8 520.79 1203.83 521.761 1203.83 522.958C1203.83 524.156 1204.8 525.127 1206 525.127Z" fill="white"></path><path d="M1243.96 525.127C1245.15 525.127 1246.12 524.156 1246.12 522.958C1246.12 521.761 1245.15 520.79 1243.96 520.79C1242.76 520.79 1241.79 521.761 1241.79 522.958C1241.79 524.156 1242.76 525.127 1243.96 525.127Z" fill="white"></path><path d="M1281.91 525.127C1283.11 525.127 1284.08 524.156 1284.08 522.958C1284.08 521.761 1283.11 520.79 1281.91 520.79C1280.71 520.79 1279.74 521.761 1279.74 522.958C1279.74 524.156 1280.71 525.127 1281.91 525.127Z" fill="white"></path><path d="M1319.87 525.127C1321.06 525.127 1322.03 524.156 1322.03 522.958C1322.03 521.761 1321.06 520.79 1319.87 520.79C1318.67 520.79 1317.7 521.761 1317.7 522.958C1317.7 524.156 1318.67 525.127 1319.87 525.127Z" fill="white"></path><path d="M1357.82 525.127C1359.02 525.127 1359.99 524.156 1359.99 522.958C1359.99 521.761 1359.02 520.79 1357.82 520.79C1356.63 520.79 1355.65 521.761 1355.65 522.958C1355.65 524.156 1356.63 525.127 1357.82 525.127Z" fill="white"></path><path d="M1395.78 525.127C1396.98 525.127 1397.95 524.156 1397.95 522.958C1397.95 521.761 1396.98 520.79 1395.78 520.79C1394.58 520.79 1393.61 521.761 1393.61 522.958C1393.61 524.156 1394.58 525.127 1395.78 525.127Z" fill="white"></path><path d="M1433.73 525.127C1434.93 525.127 1435.9 524.156 1435.9 522.958C1435.9 521.761 1434.93 520.79 1433.73 520.79C1432.54 520.79 1431.56 521.761 1431.56 522.958C1431.56 524.156 1432.54 525.127 1433.73 525.127Z" fill="white"></path><path d="M1471.69 525.127C1472.89 525.127 1473.86 524.156 1473.86 522.958C1473.86 521.761 1472.89 520.79 1471.69 520.79C1470.49 520.79 1469.52 521.761 1469.52 522.958C1469.52 524.156 1470.49 525.127 1471.69 525.127Z" fill="white"></path><path d="M1585.56 525.127C1586.75 525.127 1587.72 524.156 1587.72 522.958C1587.72 521.761 1586.75 520.79 1585.56 520.79C1584.36 520.79 1583.39 521.761 1583.39 522.958C1583.39 524.156 1584.36 525.127 1585.56 525.127Z" fill="white"></path><path d="M1547.6 525.127C1548.8 525.127 1549.77 524.156 1549.77 522.958C1549.77 521.761 1548.8 520.79 1547.6 520.79C1546.4 520.79 1545.43 521.761 1545.43 522.958C1545.43 524.156 1546.4 525.127 1547.6 525.127Z" fill="white"></path><path d="M1509.65 525.127C1510.84 525.127 1511.81 524.156 1511.81 522.958C1511.81 521.761 1510.84 520.79 1509.65 520.79C1508.45 520.79 1507.48 521.761 1507.48 522.958C1507.48 524.156 1508.45 525.127 1509.65 525.127Z" fill="white"></path><path d="M29.3779 488.264C30.5757 488.264 31.5468 487.293 31.5468 486.095C31.5468 484.898 30.5757 483.927 29.3779 483.927C28.18 483.927 27.209 484.898 27.209 486.095C27.209 487.293 28.18 488.264 29.3779 488.264Z" fill="white"></path><path d="M67.333 488.264C68.5308 488.264 69.5018 487.293 69.5018 486.095C69.5018 484.898 68.5308 483.927 67.333 483.927C66.1351 483.927 65.1641 484.898 65.1641 486.095C65.1641 487.293 66.1351 488.264 67.333 488.264Z" fill="white"></path><path d="M105.288 488.264C106.486 488.264 107.457 487.293 107.457 486.095C107.457 484.898 106.486 483.927 105.288 483.927C104.09 483.927 103.119 484.898 103.119 486.095C103.119 487.293 104.09 488.264 105.288 488.264Z" fill="white"></path><path d="M143.245 488.264C144.443 488.264 145.414 487.293 145.414 486.095C145.414 484.898 144.443 483.927 143.245 483.927C142.047 483.927 141.076 484.898 141.076 486.095C141.076 487.293 142.047 488.264 143.245 488.264Z" fill="white"></path><path d="M181.2 488.264C182.398 488.264 183.369 487.293 183.369 486.095C183.369 484.898 182.398 483.927 181.2 483.927C180.002 483.927 179.031 484.898 179.031 486.095C179.031 487.293 180.002 488.264 181.2 488.264Z" fill="white"></path><path d="M219.155 488.264C220.353 488.264 221.324 487.293 221.324 486.095C221.324 484.898 220.353 483.927 219.155 483.927C217.957 483.927 216.986 484.898 216.986 486.095C216.986 487.293 217.957 488.264 219.155 488.264Z" fill="white"></path><path d="M257.11 488.264C258.308 488.264 259.279 487.293 259.279 486.095C259.279 484.898 258.308 483.927 257.11 483.927C255.912 483.927 254.941 484.898 254.941 486.095C254.941 487.293 255.912 488.264 257.11 488.264Z" fill="white"></path><path d="M295.067 488.264C296.265 488.264 297.236 487.293 297.236 486.095C297.236 484.898 296.265 483.927 295.067 483.927C293.869 483.927 292.898 484.898 292.898 486.095C292.898 487.293 293.869 488.264 295.067 488.264Z" fill="white"></path><path d="M333.022 488.264C334.22 488.264 335.191 487.293 335.191 486.095C335.191 484.898 334.22 483.927 333.022 483.927C331.825 483.927 330.854 484.898 330.854 486.095C330.854 487.293 331.825 488.264 333.022 488.264Z" fill="white"></path><path d="M370.977 488.264C372.175 488.264 373.146 487.293 373.146 486.095C373.146 484.898 372.175 483.927 370.977 483.927C369.78 483.927 368.809 484.898 368.809 486.095C368.809 487.293 369.78 488.264 370.977 488.264Z" fill="white"></path><path d="M408.933 488.264C410.13 488.264 411.101 487.293 411.101 486.095C411.101 484.898 410.13 483.927 408.933 483.927C407.735 483.927 406.764 484.898 406.764 486.095C406.764 487.293 407.735 488.264 408.933 488.264Z" fill="white"></path><path d="M446.89 488.264C448.087 488.264 449.058 487.293 449.058 486.095C449.058 484.898 448.087 483.927 446.89 483.927C445.692 483.927 444.721 484.898 444.721 486.095C444.721 487.293 445.692 488.264 446.89 488.264Z" fill="white"></path><path d="M522.8 488.264C523.998 488.264 524.969 487.293 524.969 486.095C524.969 484.898 523.998 483.927 522.8 483.927C521.602 483.927 520.631 484.898 520.631 486.095C520.631 487.293 521.602 488.264 522.8 488.264Z" fill="white"></path><path d="M484.845 488.264C486.042 488.264 487.014 487.293 487.014 486.095C487.014 484.898 486.042 483.927 484.845 483.927C483.647 483.927 482.676 484.898 482.676 486.095C482.676 487.293 483.647 488.264 484.845 488.264Z" fill="white"></path><path d="M560.755 488.264C561.953 488.264 562.924 487.293 562.924 486.095C562.924 484.898 561.953 483.927 560.755 483.927C559.557 483.927 558.586 484.898 558.586 486.095C558.586 487.293 559.557 488.264 560.755 488.264Z" fill="white"></path><path d="M598.712 488.264C599.91 488.264 600.881 487.293 600.881 486.095C600.881 484.898 599.91 483.927 598.712 483.927C597.514 483.927 596.543 484.898 596.543 486.095C596.543 487.293 597.514 488.264 598.712 488.264Z" fill="white"></path><path d="M636.667 488.264C637.865 488.264 638.836 487.293 638.836 486.095C638.836 484.898 637.865 483.927 636.667 483.927C635.469 483.927 634.498 484.898 634.498 486.095C634.498 487.293 635.469 488.264 636.667 488.264Z" fill="white"></path><path d="M674.622 488.264C675.82 488.264 676.791 487.293 676.791 486.095C676.791 484.898 675.82 483.927 674.622 483.927C673.424 483.927 672.453 484.898 672.453 486.095C672.453 487.293 673.424 488.264 674.622 488.264Z" fill="white"></path><path d="M712.577 488.264C713.775 488.264 714.746 487.293 714.746 486.095C714.746 484.898 713.775 483.927 712.577 483.927C711.379 483.927 710.408 484.898 710.408 486.095C710.408 487.293 711.379 488.264 712.577 488.264Z" fill="white"></path><path d="M750.534 488.264C751.732 488.264 752.703 487.293 752.703 486.095C752.703 484.898 751.732 483.927 750.534 483.927C749.336 483.927 748.365 484.898 748.365 486.095C748.365 487.293 749.336 488.264 750.534 488.264Z" fill="white"></path><path d="M788.489 488.264C789.687 488.264 790.658 487.293 790.658 486.095C790.658 484.898 789.687 483.927 788.489 483.927C787.291 483.927 786.32 484.898 786.32 486.095C786.32 487.293 787.291 488.264 788.489 488.264Z" fill="white"></path><path d="M826.444 488.264C827.642 488.264 828.613 487.293 828.613 486.095C828.613 484.898 827.642 483.927 826.444 483.927C825.246 483.927 824.275 484.898 824.275 486.095C824.275 487.293 825.246 488.264 826.444 488.264Z" fill="white"></path><path d="M864.399 488.264C865.597 488.264 866.568 487.293 866.568 486.095C866.568 484.898 865.597 483.927 864.399 483.927C863.202 483.927 862.23 484.898 862.23 486.095C862.23 487.293 863.202 488.264 864.399 488.264Z" fill="white"></path><path d="M902.356 488.264C903.554 488.264 904.525 487.293 904.525 486.095C904.525 484.898 903.554 483.927 902.356 483.927C901.159 483.927 900.188 484.898 900.188 486.095C900.188 487.293 901.159 488.264 902.356 488.264Z" fill="white"></path><path d="M940.311 488.264C941.509 488.264 942.48 487.293 942.48 486.095C942.48 484.898 941.509 483.927 940.311 483.927C939.114 483.927 938.143 484.898 938.143 486.095C938.143 487.293 939.114 488.264 940.311 488.264Z" fill="white"></path><path d="M978.267 488.264C979.464 488.264 980.435 487.293 980.435 486.095C980.435 484.898 979.464 483.927 978.267 483.927C977.069 483.927 976.098 484.898 976.098 486.095C976.098 487.293 977.069 488.264 978.267 488.264Z" fill="white"></path><path d="M1054.18 488.264C1055.38 488.264 1056.35 487.293 1056.35 486.095C1056.35 484.898 1055.38 483.927 1054.18 483.927C1052.98 483.927 1052.01 484.898 1052.01 486.095C1052.01 487.293 1052.98 488.264 1054.18 488.264Z" fill="white"></path><path d="M1016.22 488.264C1017.42 488.264 1018.39 487.293 1018.39 486.095C1018.39 484.898 1017.42 483.927 1016.22 483.927C1015.02 483.927 1014.05 484.898 1014.05 486.095C1014.05 487.293 1015.02 488.264 1016.22 488.264Z" fill="white"></path><path d="M1623.51 488.264C1624.71 488.264 1625.68 487.293 1625.68 486.095C1625.68 484.898 1624.71 483.927 1623.51 483.927C1622.31 483.927 1621.34 484.898 1621.34 486.095C1621.34 487.293 1622.31 488.264 1623.51 488.264Z" fill="white"></path><path d="M1661.47 488.264C1662.66 488.264 1663.63 487.293 1663.63 486.095C1663.63 484.898 1662.66 483.927 1661.47 483.927C1660.27 483.927 1659.3 484.898 1659.3 486.095C1659.3 487.293 1660.27 488.264 1661.47 488.264Z" fill="white"></path><path d="M1775.33 488.264C1776.53 488.264 1777.5 487.293 1777.5 486.095C1777.5 484.898 1776.53 483.927 1775.33 483.927C1774.14 483.927 1773.16 484.898 1773.16 486.095C1773.16 487.293 1774.14 488.264 1775.33 488.264Z" fill="white"></path><path d="M1813.29 488.264C1814.49 488.264 1815.46 487.293 1815.46 486.095C1815.46 484.898 1814.49 483.927 1813.29 483.927C1812.09 483.927 1811.12 484.898 1811.12 486.095C1811.12 487.293 1812.09 488.264 1813.29 488.264Z" fill="white"></path><path d="M1851.25 488.264C1852.44 488.264 1853.41 487.293 1853.41 486.095C1853.41 484.898 1852.44 483.927 1851.25 483.927C1850.05 483.927 1849.08 484.898 1849.08 486.095C1849.08 487.293 1850.05 488.264 1851.25 488.264Z" fill="white"></path><path d="M1889.2 488.264C1890.4 488.264 1891.37 487.293 1891.37 486.095C1891.37 484.898 1890.4 483.927 1889.2 483.927C1888 483.927 1887.03 484.898 1887.03 486.095C1887.03 487.293 1888 488.264 1889.2 488.264Z" fill="white"></path><path d="M1737.38 488.264C1738.58 488.264 1739.55 487.293 1739.55 486.095C1739.55 484.898 1738.58 483.927 1737.38 483.927C1736.18 483.927 1735.21 484.898 1735.21 486.095C1735.21 487.293 1736.18 488.264 1737.38 488.264Z" fill="white"></path><path d="M1699.42 488.264C1700.62 488.264 1701.59 487.293 1701.59 486.095C1701.59 484.898 1700.62 483.927 1699.42 483.927C1698.22 483.927 1697.25 484.898 1697.25 486.095C1697.25 487.293 1698.22 488.264 1699.42 488.264Z" fill="white"></path><path d="M1699.42 486.095C1700.02 486.095 1700.51 485.61 1700.51 485.011C1700.51 484.412 1700.02 483.927 1699.42 483.927C1698.82 483.927 1698.34 484.412 1698.34 485.011C1698.34 485.61 1698.82 486.095 1699.42 486.095Z" fill="white"></path><path d="M1092.13 488.264C1093.33 488.264 1094.3 487.293 1094.3 486.095C1094.3 484.898 1093.33 483.927 1092.13 483.927C1090.94 483.927 1089.96 484.898 1089.96 486.095C1089.96 487.293 1090.94 488.264 1092.13 488.264Z" fill="white"></path><path d="M1130.09 488.264C1131.29 488.264 1132.26 487.293 1132.26 486.095C1132.26 484.898 1131.29 483.927 1130.09 483.927C1128.89 483.927 1127.92 484.898 1127.92 486.095C1127.92 487.293 1128.89 488.264 1130.09 488.264Z" fill="white"></path><path d="M1168.04 488.264C1169.24 488.264 1170.21 487.293 1170.21 486.095C1170.21 484.898 1169.24 483.927 1168.04 483.927C1166.85 483.927 1165.88 484.898 1165.88 486.095C1165.88 487.293 1166.85 488.264 1168.04 488.264Z" fill="white"></path><path d="M1206 488.264C1207.2 488.264 1208.17 487.293 1208.17 486.095C1208.17 484.898 1207.2 483.927 1206 483.927C1204.8 483.927 1203.83 484.898 1203.83 486.095C1203.83 487.293 1204.8 488.264 1206 488.264Z" fill="white"></path><path d="M1243.96 488.264C1245.15 488.264 1246.12 487.293 1246.12 486.095C1246.12 484.898 1245.15 483.927 1243.96 483.927C1242.76 483.927 1241.79 484.898 1241.79 486.095C1241.79 487.293 1242.76 488.264 1243.96 488.264Z" fill="white"></path><path d="M1281.91 488.264C1283.11 488.264 1284.08 487.293 1284.08 486.095C1284.08 484.898 1283.11 483.927 1281.91 483.927C1280.71 483.927 1279.74 484.898 1279.74 486.095C1279.74 487.293 1280.71 488.264 1281.91 488.264Z" fill="white"></path><path d="M1319.87 488.264C1321.06 488.264 1322.03 487.293 1322.03 486.095C1322.03 484.898 1321.06 483.927 1319.87 483.927C1318.67 483.927 1317.7 484.898 1317.7 486.095C1317.7 487.293 1318.67 488.264 1319.87 488.264Z" fill="white"></path><path d="M1357.82 488.264C1359.02 488.264 1359.99 487.293 1359.99 486.095C1359.99 484.898 1359.02 483.927 1357.82 483.927C1356.63 483.927 1355.65 484.898 1355.65 486.095C1355.65 487.293 1356.63 488.264 1357.82 488.264Z" fill="white"></path><path d="M1395.78 488.264C1396.98 488.264 1397.95 487.293 1397.95 486.095C1397.95 484.898 1396.98 483.927 1395.78 483.927C1394.58 483.927 1393.61 484.898 1393.61 486.095C1393.61 487.293 1394.58 488.264 1395.78 488.264Z" fill="white"></path><path d="M1433.73 488.264C1434.93 488.264 1435.9 487.293 1435.9 486.095C1435.9 484.898 1434.93 483.927 1433.73 483.927C1432.54 483.927 1431.56 484.898 1431.56 486.095C1431.56 487.293 1432.54 488.264 1433.73 488.264Z" fill="white"></path><path d="M1471.69 488.264C1472.89 488.264 1473.86 487.293 1473.86 486.095C1473.86 484.898 1472.89 483.927 1471.69 483.927C1470.49 483.927 1469.52 484.898 1469.52 486.095C1469.52 487.293 1470.49 488.264 1471.69 488.264Z" fill="white"></path><path d="M1585.56 488.264C1586.75 488.264 1587.72 487.293 1587.72 486.095C1587.72 484.898 1586.75 483.927 1585.56 483.927C1584.36 483.927 1583.39 484.898 1583.39 486.095C1583.39 487.293 1584.36 488.264 1585.56 488.264Z" fill="white"></path><path d="M1547.6 488.264C1548.8 488.264 1549.77 487.293 1549.77 486.095C1549.77 484.898 1548.8 483.927 1547.6 483.927C1546.4 483.927 1545.43 484.898 1545.43 486.095C1545.43 487.293 1546.4 488.264 1547.6 488.264Z" fill="white"></path><path d="M1509.65 488.264C1510.84 488.264 1511.81 487.293 1511.81 486.095C1511.81 484.898 1510.84 483.927 1509.65 483.927C1508.45 483.927 1507.48 484.898 1507.48 486.095C1507.48 487.293 1508.45 488.264 1509.65 488.264Z" fill="white"></path></g><g opacity="0.3" filter="url(#filter0_f_3393_7900)"><circle cx="1811" cy="520" r="154" fill="#007AFF"></circle></g><g opacity="0.3" filter="url(#filter1_f_3393_7900)"><circle cx="973" cy="634" r="143" fill="#FFA700"></circle></g><g opacity="0.3" filter="url(#filter2_f_3393_7900)"><circle cx="69.5" cy="176.5" r="150.5" fill="#007AFF"></circle></g><g opacity="0.3" filter="url(#filter3_f_3393_7900)"><circle cx="86.5" cy="556.5" r="130.5" fill="#FFA700"></circle></g><g opacity="0.3" filter="url(#filter4_f_3393_7900)"><circle cx="1864.5" cy="130.5" r="86.5" fill="#FFA700"></circle></g><path opacity="0.03" d="M-200.222 616.246C-133.139 641.408 14.9999 662.02 70.8972 543.177C140.769 394.623 145.963 169.127 312.989 157.381C480.014 145.636 520.349 116.037 549.774 7.28908" stroke="white" stroke-width="12"></path><path opacity="0.03" d="M1648.01 -20.5169C1653.52 36.3214 1690.58 142.448 1794.81 112.249C1899.04 82.0504 1965.09 169.953 1985.09 217.679" stroke="white" stroke-width="12"></path><path opacity="0.03" d="M1965.5 613C1975.67 524.666 1967.1 366 1851.5 438C1707 528 1594.5 433 1575.5 387.5C1556.5 342 1159 570.5 1392.5 656" stroke="white" stroke-width="12"></path><path opacity="0.5" d="M540.984 62.4997L544.787 67.1703L550.807 67.3238L546.137 71.1264L545.983 77.1473L542.181 72.4767L536.16 72.3232L540.83 68.5206L540.984 62.4997Z" fill="#60B158"></path><path opacity="0.5" d="M1510.28 71.5588L1509.89 78.4769L1514.88 83.2787L1507.96 82.8854L1503.16 87.8811L1503.55 80.963L1498.56 76.1612L1505.48 76.5545L1510.28 71.5588Z" fill="#FF6961"></path><path opacity="0.5" d="M76.7715 437.274L78.7638 444.755L85.7392 448.111L78.259 450.104L74.9023 457.079L72.91 449.599L65.9346 446.242L73.4148 444.25L76.7715 437.274Z" fill="#FFA700"></path><path opacity="0.5" d="M1855.11 335.614L1860.32 341.34L1868.06 341.114L1862.33 346.322L1862.56 354.06L1857.35 348.334L1849.61 348.56L1855.34 343.351L1855.11 335.614Z" fill="#FFA700"></path></g><defs><filter id="filter0_f_3393_7900" x="1383" y="92" width="856" height="856" filterUnits="userSpaceOnUse" color-interpolation-filters="sRGB"><feGaussianBlur stdDeviation="137"></feGaussianBlur></filter><filter id="filter1_f_3393_7900" x="556" y="217" width="834" height="834" filterUnits="userSpaceOnUse" color-interpolation-filters="sRGB"><feGaussianBlur stdDeviation="137"></feGaussianBlur></filter><filter id="filter2_f_3393_7900" x="-355" y="-248" width="849" height="849" filterUnits="userSpaceOnUse" color-interpolation-filters="sRGB"><feGaussianBlur stdDeviation="137"></feGaussianBlur></filter><filter id="filter3_f_3393_7900" x="-318" y="152" width="809" height="809" filterUnits="userSpaceOnUse" color-interpolation-filters="sRGB"><feGaussianBlur stdDeviation="137"></feGaussianBlur></filter><filter id="filter4_f_3393_7900" x="1504" y="-230" width="721" height="721" filterUnits="userSpaceOnUse" color-interpolation-filters="sRGB"><feGaussianBlur stdDeviation="137"></feGaussianBlur></filter></defs></svg>