<svg width="166" height="123" viewBox="0 0 166 123" fill="none" xmlns="http://www.w3.org/2000/svg">
<path d="M71.2047 108.086H77.3799V65.8642H71.2047V108.086Z" fill="#DCEAF9"/>
<path d="M73.3719 108.079H71.2139V100.057H75.6627L73.3719 108.079Z" fill="#DCEAF9"/>
<path d="M136.59 108.086H142.766V65.8642H136.59V108.086Z" fill="#DCEAF9"/>
<path d="M71.2114 105.896L138.475 105.896V65.8863H71.2114V105.896Z" fill="#EDF6FF"/>
<path d="M136.319 108.079H138.477V100.057H134.028L136.319 108.079Z" fill="white"/>
<path d="M116.295 69.1928V102.303H136.248V69.1928H116.295Z" fill="#DCEAF9"/>
<path d="M124.301 70.347H128.252C129.978 70.347 131.605 69.7198 132.767 68.6634H119.752C120.948 69.7528 122.574 70.347 124.301 70.347Z" fill="white"/>
<path d="M94.8647 69.1768V102.287H114.818V69.1768H94.8647Z" fill="#DCEAF9"/>
<path d="M102.654 70.347H106.605C108.332 70.347 109.958 69.7198 111.12 68.6634H98.106C99.3344 69.7528 100.961 70.347 102.654 70.347Z" fill="white"/>
<path d="M73.4346 69.1938V102.304H93.3878V69.1938H73.4346Z" fill="#DCEAF9"/>
<path d="M81.2403 70.347H85.1911C86.9175 70.347 88.5443 69.7198 89.7063 68.6634H76.6919C77.8871 69.7528 79.5139 70.347 81.2403 70.347Z" fill="#F0F0F0"/>
<path d="M23.2197 108.102H64.5205L64.5205 13.8221H23.2197L23.2197 108.102Z" fill="#EDF6FF"/>
<path d="M62.019 105.955L62.019 15.9333L25.7646 15.9333L25.7646 105.955H62.019Z" fill="#DCEAF9"/>
<path d="M58.4318 32.6811C58.4318 27.2673 54.0162 22.8438 48.5382 22.8438H39.1758C33.731 22.8438 29.2822 27.2342 29.2822 32.6811H58.4318Z" fill="#FAFAFA"/>
<path d="M58.4375 100.347L58.4375 78.8565H29.2879L29.2879 100.347H58.4375Z" fill="white"/>
<path d="M58.4319 38.7552H45.5835V76.0909H58.4319V38.7552Z" fill="white"/>
<path d="M42.1638 38.7552H29.3154V76.0909H42.1638V38.7552Z" fill="white"/>
<path d="M33.9633 57.2415H28.7177C28.2529 57.2415 27.8877 56.8784 27.8877 56.4162C27.8877 55.9541 28.2529 55.5909 28.7177 55.5909H33.9965C34.4613 55.5909 34.8265 55.9541 34.8265 56.4162C34.7933 56.8784 34.4281 57.2415 33.9633 57.2415Z" fill="#DCEAF9"/>
<path d="M26.3867 105.964L26.3867 15.9421H25.7227L25.7227 105.964H26.3867Z" fill="white"/>
<path d="M92.117 55.542L136.837 55.542V13.8157L92.117 13.8157V55.542Z" fill="#EDF6FF"/>
<path d="M90.9905 55.542L135.711 55.542V13.8157L90.9905 13.8157V55.542Z" fill="#DCEAF9"/>
<path d="M88.3776 57.958L136.85 57.958V55.5482L88.3776 55.5482V57.958Z" fill="#DCEAF9"/>
<path d="M87.0937 57.958L133.076 57.958V55.5482L87.0937 55.5482V57.958Z" fill="#EDF6FF"/>
<path d="M133.667 53.3931V15.9913L92.9633 15.9913V53.3931L133.667 53.3931Z" fill="white"/>
<path d="M114.477 53.3931V15.9913H112.219V53.3931H114.477Z" fill="#DCEAF9"/>
<path d="M93.8623 53.3904V15.9886H92.9991V53.3904H93.8623Z" fill="#DCEAF9"/>
<path d="M115.333 53.3666V15.9648H114.47V53.3666H115.333Z" fill="#EDF6FF"/>
<path d="M98.1062 56.6473C97.2762 48.1634 96.7118 34.4307 97.1434 29.8092C97.1434 29.6441 97.243 29.5121 97.3758 29.413C97.7742 29.1489 98.3054 29.413 98.2722 29.8752C98.2058 32.153 98.1062 37.8639 98.6042 47.6683C98.8366 52.5539 99.2018 55.9211 98.9694 56.6143H98.1062V56.6473Z" fill="#DCEAF9"/>
<path d="M95.0516 37.1046C92.6944 34.5297 87.9136 32.6811 83.0332 32.6811C81.1076 32.6811 88.8432 35.6851 92.0636 39.0193C94.5536 41.5941 97.3756 45.9186 98.3384 48.3284C97.7408 43.2777 97.3755 39.6795 95.0516 37.1046Z" fill="#DCEAF9"/>
<path d="M99.6998 37.8969C101.659 35.19 106.141 33.1433 110.988 32.9122C112.88 32.8132 105.643 36.2133 102.92 39.6795C100.829 42.3864 98.6706 46.843 98.073 49.2858C97.9402 44.1691 97.741 40.5708 99.6998 37.8969Z" fill="#DCEAF9"/>
<path d="M94.9521 27.6634C92.9601 25.4847 88.9097 23.9001 84.7929 23.9331C83.1661 23.9331 89.7397 26.475 92.4621 29.2809C94.5869 31.4597 96.9773 35.1239 97.7741 37.1706C97.2097 32.8792 96.9109 29.8421 94.9521 27.6634Z" fill="#DCEAF9"/>
<path d="M98.8697 30.8985C100.53 28.6207 104.315 26.8711 108.431 26.6731C110.058 26.607 103.916 29.446 101.592 32.384C99.7993 34.6618 97.9733 38.4251 97.4753 40.5048C97.3757 36.2133 97.2429 33.1763 98.8697 30.8985Z" fill="#DCEAF9"/>
<path d="M98.438 65.8905C95.8816 65.8905 93.7568 63.9098 93.5908 61.3679L93.1592 54.0064H103.684L103.252 61.3679C103.119 63.8768 100.994 65.8905 98.438 65.8905Z" fill="#DCEAF9"/>
<path d="M104.381 55.657H92.4951L92.1631 52.5869H104.713L104.381 55.657Z" fill="#DCEAF9"/>
<path d="M82.9998 123C118.553 123 147.375 121.33 147.375 119.27C147.375 117.21 118.553 115.539 82.9998 115.539C47.4466 115.539 18.625 117.21 18.625 119.27C18.625 121.33 47.4466 123 82.9998 123Z" fill="#EDF6FF"/>
<path d="M84.295 115.704L81.5395 116.002L80.5103 109.762L83.2658 109.432L84.295 115.704Z" fill="#FFC3BD"/>
<path d="M96.7121 116.299H93.9565L93.2593 109.927H96.0149L96.7121 116.299Z" fill="#FFC3BD"/>
<path d="M93.7239 115.969H97.1103C97.2099 115.969 97.3095 116.035 97.3427 116.167L97.8739 118.609C97.9403 118.874 97.7411 119.105 97.4755 119.105C96.3799 119.072 95.5831 119.039 94.2219 119.039C93.3919 119.039 90.8355 119.138 89.6735 119.138C88.5447 119.138 88.3455 117.982 88.8435 117.883C90.9683 117.421 92.5951 116.794 93.2591 116.167C93.3919 116.035 93.5579 115.969 93.7239 115.969Z" fill="#1E2538"/>
<path d="M81.4731 115.539L84.4611 115.209C84.5607 115.209 84.6935 115.275 84.7267 115.374L85.5567 117.751C85.6563 117.982 85.4903 118.246 85.2247 118.279C84.1291 118.378 82.5687 118.51 81.2075 118.643C79.6139 118.808 79.3483 119.237 77.4559 119.204C76.3271 119.171 76.0283 118.015 76.4931 117.949C78.6843 117.52 79.0827 117.19 80.8091 115.837C81.0415 115.672 81.2407 115.572 81.4731 115.539Z" fill="#1E2538"/>
<path d="M83.9296 35.4211C83 36.1803 82.0704 36.8405 81.1408 37.5338C80.2112 38.194 79.2153 38.8542 78.2192 39.4484C77.2232 40.0426 76.194 40.6368 75.1316 41.165C74.0693 41.6932 72.9404 42.1884 71.712 42.5845C71.4132 42.6835 71.1145 42.7496 70.7493 42.8486C70.3509 42.9476 70.052 42.9806 69.72 43.0137C69.0892 43.0797 68.5249 43.1127 67.9273 43.1457C66.7653 43.2117 65.6032 43.2117 64.4744 43.1787C62.1836 43.1457 59.9261 43.0467 57.6353 42.8486L57.6021 40.7689C59.8265 40.4718 62.084 40.2407 64.3084 39.9766C65.404 39.8446 66.5329 39.7125 67.5953 39.5805C68.1265 39.5145 68.6576 39.4154 69.1557 39.3164C69.3881 39.2834 69.6536 39.2174 69.7864 39.1843C69.9856 39.1183 70.218 39.0523 70.4504 38.9533C71.3468 38.5901 72.2764 38.128 73.206 37.5998C74.1356 37.0716 75.032 36.5104 75.9616 35.9162C76.858 35.322 77.7544 34.6948 78.6508 34.0676C79.5472 33.4404 80.4436 32.7802 81.2736 32.1199L83.9296 35.4211Z" fill="#FFC3BD"/>
<path d="M86.6192 33.0773C86.2208 35.6851 80.7096 39.6465 80.7096 39.6465L76.7588 34.7608C76.7588 34.7608 79.614 31.7238 82.27 29.545C84.0628 28.1256 87.0508 30.2383 86.6192 33.0773Z" fill="#007AFF"/>
<path d="M58.3993 41L56.8389 39.8776L56.6729 43.3768C56.6729 43.3768 57.5361 43.3768 57.8681 42.7496L58.3993 41Z" fill="#FFC3BD"/>
<path d="M55.4111 38.8873L55.0791 42.3204L56.6395 43.4098L56.8387 39.9106L55.4111 38.8873Z" fill="#FFC3BD"/>
<path opacity="0.2" d="M80.5103 109.762L81.0415 112.965L83.797 112.667L83.2658 109.432L80.5103 109.762Z" fill="#1E2538"/>
<path opacity="0.2" d="M96.0149 109.927H93.2593L93.6245 113.196H96.3801L96.0149 109.927Z" fill="#1E2538"/>
<path d="M96.0477 29.6441C96.9109 29.8421 97.4421 30.7004 97.2429 31.5587C96.6121 34.1006 96.1805 36.6425 95.8817 39.0853C95.6161 41.231 95.4501 43.2447 95.3505 45.0933C95.1181 49.4178 95.2177 52.719 95.0849 53.8413C92.9269 53.6763 84.7597 53.1151 80.3109 52.818C78.8169 41.132 80.5765 33.6714 81.5725 30.6344C81.8713 29.6771 82.7345 28.9838 83.7305 28.8518C84.2949 28.7858 84.9921 28.7198 85.6893 28.6537C85.9549 28.6537 86.1873 28.6207 86.4529 28.6207C88.1129 28.5877 90.8685 28.8188 92.7277 29.0499C93.1261 29.0829 93.5245 29.1489 93.9229 29.2149C94.7197 29.38 95.4501 29.512 96.0477 29.6441Z" fill="#FFA700"/>
<path d="M92.6285 22.0185C92.0973 23.9992 91.4333 27.6634 92.7613 29.0829C89.3417 31.3607 87.1505 34.5958 86.5197 33.9026C86.1877 33.5394 86.0549 29.281 86.4865 28.6538C88.7773 28.2906 88.8437 26.6071 88.5449 25.0225L92.6285 22.0185Z" fill="#FFC3BD"/>
<path d="M92.4955 28.2576C92.4955 28.2576 86.9179 30.7005 86.1875 36.2134C87.7147 34.4307 91.1343 32.5161 91.1343 32.5161L89.6403 32.0869C89.6403 32.0869 90.9683 31.5588 92.5951 31.2947C92.4291 30.5354 93.3255 29.0169 93.3255 29.0169L92.4955 28.2576Z" fill="#007AFF"/>
<path d="M87.4489 28.1586C87.4489 28.1586 88.1793 31.2947 86.1541 36.1804C85.8553 34.2987 84.5273 31.1957 84.5273 31.1957L85.8885 31.5588C85.8885 31.5588 85.8221 30.9316 84.7265 30.0733C85.1249 29.281 86.4197 28.3567 86.4197 28.3567L87.4489 28.1586Z" fill="#007AFF"/>
<path opacity="0.2" d="M90.9685 23.2399L88.5449 25.0225C88.6113 25.3857 88.6445 25.7818 88.6445 26.1449C89.5077 26.0789 90.7693 25.2206 90.9021 24.3293C91.0017 23.8671 91.0017 23.438 90.9685 23.2399Z" fill="#1E2538"/>
<path d="M85.5233 16.2745C84.1621 16.3406 83.4317 18.6514 84.7929 20.566C86.1873 22.4476 87.3493 16.1755 85.5233 16.2745Z" fill="#1E2538"/>
<path d="M92.1965 18.2882C92.3625 21.0281 92.5949 22.6127 91.3665 24.1642C89.5405 26.508 86.0545 25.6497 85.0585 23.0418C84.1953 20.665 84.0625 16.6046 86.5857 15.2182C89.1089 13.8647 92.0305 15.5813 92.1965 18.2882Z" fill="#FFC3BD"/>
<path d="M92.5952 20.4009C90.5036 19.0805 89.7732 17.3309 89.6072 16.4726C88.8104 16.6707 84.7932 18.4863 83.5648 16.4726C82.3364 14.4589 83.8968 13.2705 86.1876 14.5249C85.1584 12.7423 86.088 11.851 89.3084 11.785C92.4956 11.719 92.0972 13.5676 92.0972 13.5676C92.0972 13.5676 94.5208 12.5112 95.384 14.3599C96.3468 16.4396 94.5208 20.0708 92.5952 20.4009Z" fill="#1E2538"/>
<path d="M91.5327 13.0394C91.5659 13.0394 92.7611 13.3365 94.1223 11.95C93.8899 13.1054 91.7651 13.8977 91.7651 13.8977L91.5327 13.0394Z" fill="#1E2538"/>
<path d="M93.1265 17.0338C91.8649 16.6046 90.3045 18.4862 90.8689 20.764C91.4333 23.0088 94.8529 17.628 93.1265 17.0338Z" fill="#1E2538"/>
<path d="M93.8565 20.566C93.7237 21.2922 93.2921 21.8864 92.7941 22.2496C92.0305 22.7777 91.3665 22.1835 91.3333 21.3252C91.3001 20.566 91.6321 19.3446 92.5285 19.1795C93.3585 18.9814 93.9893 19.7407 93.8565 20.566Z" fill="#FFC3BD"/>
<path d="M84.4943 83.8486C85.1583 75.7938 90.0387 53.5112 90.0387 53.5112L80.3443 52.851C80.3443 52.851 76.5927 74.9686 76.3271 83.3534C76.0283 92.0684 79.5475 111.479 79.5475 111.479L84.1955 110.951C84.1955 110.951 83.8303 91.9364 84.4943 83.8486Z" fill="#007AFF"/>
<path d="M84.4943 83.8486C85.1583 75.7938 90.0387 53.5112 90.0387 53.5112L80.3443 52.851C80.3443 52.851 76.5927 74.9686 76.3271 83.3534C76.0283 92.0684 79.5475 111.479 79.5475 111.479L84.1955 110.951C84.1955 110.951 83.8303 91.9364 84.4943 83.8486Z" fill="#1E2538"/>
<path opacity="0.2" d="M86.3866 61.0378C84.4278 63.5137 84.3946 72.2617 85.1582 78.7319C85.8886 74.0773 87.0174 68.1683 88.0134 63.2166L86.3866 61.0378Z" fill="#1E2538"/>
<path d="M85.5898 53.1811C85.5898 53.1811 86.6522 76.7511 87.8142 84.7399C89.109 93.4879 92.3294 112.568 92.3294 112.568H97.409C97.409 112.568 96.579 94.5772 95.915 85.9943C95.1514 76.223 95.1182 53.8413 95.1182 53.8413L85.5898 53.1811Z" fill="#007AFF"/>
<path d="M85.5898 53.1811C85.5898 53.1811 86.6522 76.7511 87.8142 84.7399C89.109 93.4879 92.3294 112.568 92.3294 112.568H97.409C97.409 112.568 96.579 94.5772 95.915 85.9943C95.1514 76.223 95.1182 53.8413 95.1182 53.8413L85.5898 53.1811Z" fill="#2C354D"/>
<path d="M91.7319 112.667H97.7079V110.918L91.0347 110.786L91.7319 112.667Z" fill="#007AFF"/>
<path d="M79.3481 112.007L84.8925 111.38L84.6933 109.597L78.4849 110.192L79.3481 112.007Z" fill="#007AFF"/>
<path d="M88.1465 19.5427C88.1797 19.7738 88.0801 19.9718 87.9473 19.9718C87.8145 20.0049 87.6485 19.8398 87.6485 19.6087C87.6153 19.3776 87.7149 19.1796 87.8477 19.1796C87.9805 19.1796 88.1133 19.3446 88.1465 19.5427Z" fill="#1E2538"/>
<path d="M85.6563 19.8397C85.6895 20.0708 85.5899 20.2689 85.4571 20.2689C85.3243 20.3019 85.1583 20.1368 85.1583 19.9058C85.1251 19.6747 85.2247 19.4766 85.3575 19.4766C85.4903 19.4766 85.6231 19.6417 85.6563 19.8397Z" fill="#1E2538"/>
<path d="M86.453 19.8727C86.453 19.8727 86.0878 21.1932 85.623 21.8864C86.0546 22.2165 86.7187 21.9524 86.7187 21.9524L86.453 19.8727Z" fill="#FF6961"/>
<path d="M88.8432 18.6514C88.81 18.6514 88.7436 18.6514 88.7104 18.6183C88.312 18.1892 87.814 18.2882 87.814 18.2882C87.7476 18.2882 87.6811 18.2552 87.6479 18.1892C87.6479 18.1232 87.6811 18.0571 87.7475 18.0241C87.7807 18.0241 88.3784 17.9251 88.8764 18.4203C88.9428 18.4863 88.9096 18.5523 88.8764 18.6183C88.8764 18.6514 88.8432 18.6514 88.8432 18.6514Z" fill="#1E2538"/>
<path d="M87.8809 22.8438C88.9764 22.5797 89.3084 21.7214 89.3084 21.6884C89.3084 21.6554 89.3084 21.6224 89.2752 21.5894C89.242 21.5894 89.2088 21.5894 89.1756 21.6224C89.1756 21.6224 88.8768 22.4476 87.8477 22.7117C87.8145 22.7117 87.7812 22.7447 87.7812 22.8108C87.8144 22.8108 87.8477 22.8438 87.8809 22.8438Z" fill="#1E2538"/>
<path d="M84.4613 19.1135C84.4281 19.1135 84.3949 19.1135 84.3949 19.1135C84.3285 19.0805 84.2953 19.0145 84.3285 18.9484C84.5609 18.2552 85.1585 18.1232 85.1917 18.1232C85.2581 18.0901 85.3245 18.1562 85.3577 18.2222C85.3909 18.2882 85.3244 18.3542 85.258 18.3873C85.2248 18.3873 84.7933 18.5193 84.5941 19.0475C84.5277 19.0805 84.4945 19.1135 84.4613 19.1135Z" fill="#1E2538"/>
<path d="M92.7944 116.464C92.5952 116.464 92.396 116.431 92.2632 116.332C92.1636 116.233 92.1304 116.134 92.1304 116.002C92.1304 115.903 92.1968 115.837 92.23 115.804C92.5288 115.638 93.4252 116.2 93.5248 116.266C93.558 116.266 93.558 116.299 93.558 116.332C93.558 116.365 93.5248 116.365 93.5248 116.398C93.3256 116.398 93.06 116.464 92.7944 116.464ZM92.396 115.87C92.3628 115.87 92.3296 115.87 92.2964 115.87C92.2632 115.87 92.2632 115.903 92.2632 115.936C92.2632 116.035 92.2964 116.101 92.3628 116.167C92.5288 116.299 92.8608 116.299 93.3588 116.233C93.0268 116.101 92.5952 115.87 92.396 115.87Z" fill="#007AFF"/>
<path d="M93.4914 116.365C93.1594 116.2 92.6282 115.605 92.6946 115.308C92.6946 115.242 92.761 115.143 92.8938 115.143C92.9934 115.143 93.093 115.143 93.1594 115.242C93.4914 115.506 93.5578 116.299 93.5578 116.332C93.5578 116.365 93.5578 116.365 93.5246 116.398C93.5246 116.365 93.5246 116.365 93.4914 116.365ZM92.9602 115.242C92.927 115.242 92.927 115.242 92.9602 115.242C92.8606 115.242 92.8274 115.308 92.8274 115.308C92.7942 115.473 93.1594 115.936 93.425 116.167C93.3918 115.936 93.2922 115.473 93.093 115.308C93.0598 115.275 92.9934 115.242 92.9602 115.242Z" fill="#007AFF"/>
<path d="M81.2406 115.936C80.809 116.068 80.0122 116.266 79.6802 116.035C79.5806 115.969 79.5142 115.87 79.5142 115.737C79.5142 115.671 79.5474 115.605 79.6138 115.539C79.9126 115.308 81.1078 115.737 81.2406 115.803C81.2738 115.803 81.2738 115.837 81.2738 115.87C81.307 115.903 81.2738 115.936 81.2406 115.936ZM79.7134 115.671C79.6802 115.704 79.647 115.704 79.6802 115.77C79.6802 115.87 79.7134 115.936 79.7798 115.969C79.979 116.101 80.4106 116.068 81.0082 115.903C80.5434 115.704 79.9126 115.539 79.7134 115.671Z" fill="#007AFF"/>
<path d="M81.2406 115.936C81.2406 115.936 81.2074 115.936 81.1742 115.936C80.809 115.837 80.1118 115.308 80.1118 114.978C80.1118 114.912 80.145 114.813 80.3442 114.78C80.477 114.747 80.6098 114.78 80.7094 114.846C81.1078 115.077 81.2406 115.837 81.2406 115.837C81.307 115.903 81.2738 115.903 81.2406 115.936C81.2738 115.936 81.2738 115.936 81.2406 115.936ZM80.311 114.945C80.2778 114.978 80.2778 115.011 80.2778 115.011C80.2778 115.209 80.7758 115.605 81.141 115.771C81.0746 115.572 80.9418 115.143 80.6762 114.978C80.5766 114.912 80.5102 114.912 80.4106 114.912C80.3774 114.912 80.3442 114.945 80.311 114.945Z" fill="#007AFF"/>
<path d="M98.4048 33.6385C98.3384 34.7278 98.2056 35.7182 98.0728 36.7415C97.94 37.7649 97.774 38.7882 97.5748 39.8116C97.1764 41.8583 96.6784 43.905 95.8816 45.9517L95.5496 46.7109L95.45 46.909L95.4168 46.942L95.3836 47.008L95.284 47.2061C95.1512 47.4372 94.9852 47.6682 94.8192 47.8333C94.4872 48.1964 94.1552 48.4605 93.8232 48.6586C93.4912 48.8567 93.1924 48.9887 92.8604 49.1207C91.632 49.5829 90.5364 49.7149 89.4408 49.814C87.2828 49.979 85.1912 49.88 83.0996 49.5829L83.166 47.5032L84.6268 47.3381C85.1248 47.2721 85.5896 47.2061 86.0876 47.1401C87.0504 47.008 88.0132 46.843 88.9428 46.6449C89.8392 46.4468 90.7356 46.1827 91.3996 45.8526C91.6984 45.6876 91.9308 45.4895 91.9308 45.4565C91.9308 45.4235 91.8312 45.6216 91.964 45.2914L92.1964 44.6642C92.7276 42.9146 93.126 41 93.4248 39.0853C93.5908 38.128 93.7236 37.1707 93.8564 36.1803C93.9892 35.223 94.0888 34.2327 94.1884 33.3083L98.4048 33.6385Z" fill="#FFC3BD"/>
<path d="M98.6377 31.6248C99.9988 33.8695 98.8369 41 98.8369 41L91.732 39.6795C91.732 39.6795 91.3337 35.6191 92.6949 32.4831C94.1889 29.0829 97.0109 28.8848 98.6377 31.6248Z" fill="#007AFF"/>
<path d="M81.2406 53.9074L77.489 36.4774C77.157 34.9919 75.6962 33.7705 74.2022 33.7705H62.4827H59.7603C61.2543 33.7705 62.7483 34.9919 63.0471 36.4774L66.7986 53.9074C67.1306 55.3929 68.5915 56.6143 70.0855 56.6143H81.805H84.5274C83.0334 56.6143 81.5726 55.4259 81.2406 53.9074Z" fill="#1E2538"/>
<path d="M81.2406 53.9074L77.489 36.4774C77.157 34.9919 75.6962 33.7705 74.2022 33.7705H62.4827H59.7603C61.2543 33.7705 62.7483 34.9919 63.0471 36.4774L66.7986 53.9074C67.1306 55.3929 68.5915 56.6143 70.0855 56.6143H81.805H84.5274C83.0334 56.6143 81.5726 55.4259 81.2406 53.9074Z" fill="#7ECB76"/>
<path d="M53.8763 55.1637L53.4985 59.2399L53.8291 59.2702L54.2069 55.194L53.8763 55.1637Z" fill="#60B158"/>
<path d="M53.3625 60.8407L53.2041 62.55L53.5347 62.5803L53.6931 60.871L53.3625 60.8407Z" fill="#60B158"/>
<path d="M59.7271 33.8035H71.4467H74.1691C72.6751 33.8035 71.3471 35.0249 71.2143 36.5104L67.4627 77.0152C67.3299 78.5007 66.0019 79.7222 64.5079 79.7222H55.5107C54.0167 79.7222 52.9211 78.5007 53.0539 77.0152L56.7723 36.5104C56.9051 34.9919 58.2331 33.8035 59.7271 33.8035Z" fill="#60B158"/>
<path d="M62.051 76.9822C61.9182 78.4677 63.0139 79.6892 64.5079 79.6892H61.7855H50.0659C48.5718 79.6892 47.4762 78.4677 47.609 76.9822H62.051Z" fill="#1E2538"/>
<path d="M62.051 76.9822C61.9182 78.4677 63.0139 79.6892 64.5079 79.6892H61.7855H50.0659C48.5718 79.6892 47.4762 78.4677 47.609 76.9822H62.051Z" fill="#7ECB76"/>
<g opacity="0.5">
<path opacity="0.5" d="M68.7243 38.326H58.9636C58.6316 38.326 58.3992 38.0619 58.4324 37.7318C58.4656 37.4017 58.7644 37.1376 59.0632 37.1376H68.8239C69.1559 37.1376 69.3883 37.4017 69.3551 37.7318C69.3219 38.0619 69.0231 38.326 68.7243 38.326Z" fill="white"/>
<path opacity="0.5" d="M68.426 41.4951H58.6652C58.3332 41.4951 58.1008 41.231 58.134 40.9009C58.1672 40.5708 58.466 40.3067 58.7648 40.3067H68.5256C68.8576 40.3067 69.09 40.5708 69.0568 40.9009C69.0236 41.231 68.758 41.4951 68.426 41.4951Z" fill="white"/>
<path opacity="0.5" d="M65.7363 44.6972H58.3659C58.0339 44.6972 57.8015 44.4331 57.8347 44.103C57.8679 43.7729 58.1667 43.5088 58.4655 43.5088H65.8359C66.1679 43.5088 66.4003 43.7729 66.3671 44.103C66.3339 44.4331 66.0683 44.6972 65.7363 44.6972Z" fill="white"/>
<path opacity="0.5" d="M60.5576 47.8663H58.0676C57.7356 47.8663 57.5032 47.6022 57.5364 47.2721C57.5696 46.942 57.8684 46.6779 58.1672 46.6779H60.6572C60.9892 46.6779 61.2216 46.942 61.1884 47.2721C61.1884 47.6022 60.8896 47.8663 60.5576 47.8663Z" fill="white"/>
<path opacity="0.5" d="M67.5627 51.0354H57.7687C57.4367 51.0354 57.2043 50.7713 57.2375 50.4412C57.2707 50.1111 57.5695 49.847 57.8683 49.847H67.6291C67.9611 49.847 68.1935 50.1111 68.1603 50.4412C68.1603 50.7713 67.8615 51.0354 67.5627 51.0354Z" fill="white"/>
<path opacity="0.5" d="M63.4127 54.2375H57.5031C57.1711 54.2375 56.9387 53.9734 56.9719 53.6433C57.0051 53.3132 57.3039 53.0491 57.6027 53.0491H63.5123C63.8443 53.0491 64.0767 53.3132 64.0435 53.6433C64.0103 53.9734 63.7447 54.2375 63.4127 54.2375Z" fill="white"/>
<path opacity="0.5" d="M66.9651 57.4065H57.2043C56.8723 57.4065 56.6399 57.1425 56.6731 56.8123C56.7063 56.4822 57.0051 56.2181 57.3039 56.2181H67.0647C67.3967 56.2181 67.6291 56.4822 67.5959 56.8123C67.5959 57.1425 67.2971 57.4065 66.9651 57.4065Z" fill="white"/>
<path opacity="0.5" d="M64.2758 60.5756H56.9054C56.5734 60.5756 56.341 60.3115 56.3742 59.9814C56.4074 59.6513 56.7062 59.3872 57.005 59.3872H64.3754C64.7074 59.3872 64.9398 59.6513 64.9066 59.9814C64.9066 60.3115 64.6078 60.5756 64.2758 60.5756Z" fill="white"/>
<path opacity="0.5" d="M59.1298 63.7447H56.6398C56.3078 63.7447 56.0754 63.4807 56.1086 63.1505C56.1418 62.8204 56.4406 62.5563 56.7394 62.5563H59.2294C59.5614 62.5563 59.7938 62.8204 59.7606 63.1505C59.7274 63.4807 59.4286 63.7447 59.1298 63.7447Z" fill="white"/>
<path opacity="0.5" d="M66.1018 66.9468H56.341C56.009 66.9468 55.7766 66.6827 55.8098 66.3526C55.843 66.0225 56.1418 65.7584 56.4406 65.7584H66.2014C66.5334 65.7584 66.7658 66.0225 66.7326 66.3526C66.6994 66.6827 66.4338 66.9468 66.1018 66.9468Z" fill="white"/>
<path opacity="0.5" d="M61.9518 70.1159H56.0422C55.7102 70.1159 55.4778 69.8518 55.511 69.5217C55.5442 69.1916 55.843 68.9275 56.1418 68.9275H62.0514C62.3834 68.9275 62.6158 69.1916 62.5826 69.5217C62.5826 69.8518 62.2838 70.1159 61.9518 70.1159Z" fill="white"/>
<path opacity="0.5" d="M65.5041 73.285H55.7433C55.4113 73.285 55.1789 73.0209 55.2121 72.6908C55.2453 72.3606 55.5441 72.0966 55.8429 72.0966H65.6037C65.9357 72.0966 66.1681 72.3606 66.1349 72.6908C66.1349 73.0209 65.8361 73.285 65.5041 73.285Z" fill="white"/>
</g>
<path d="M84.0627 47.7673L81.9379 45.9186L80.9419 49.2858C80.9419 49.2858 83.0999 50.4412 83.8303 49.3848L84.0627 47.7673Z" fill="#FFC3BD"/>
<path d="M79.6469 45.7866L78.9497 48.6255L80.9417 49.2858L81.9377 45.9186L79.6469 45.7866Z" fill="#FFC3BD"/>
<path d="M132.376 115.152C132.37 115.152 132.365 115.152 132.359 115.151C132.349 115.148 132.339 115.144 132.33 115.138C132.322 115.132 132.314 115.125 132.308 115.116C132.303 115.107 132.299 115.097 132.297 115.087C132.295 115.076 132.295 115.066 132.298 115.055C133.951 107.345 133.177 100.025 129.998 93.2978C128.045 89.1187 125.225 85.3973 121.723 82.3781C121.715 82.3714 121.708 82.3633 121.703 82.3541C121.698 82.3449 121.695 82.3348 121.694 82.3244C121.693 82.3139 121.694 82.3034 121.697 82.2934C121.7 82.2835 121.705 82.2742 121.712 82.2661C121.718 82.2581 121.727 82.2514 121.736 82.2465C121.745 82.2417 121.755 82.2387 121.766 82.2377C121.776 82.2368 121.787 82.2379 121.797 82.2411C121.807 82.2442 121.816 82.2493 121.824 82.256C125.344 85.2902 128.179 89.0301 130.142 93.2303C133.337 99.9894 134.115 107.344 132.454 115.088C132.45 115.106 132.441 115.122 132.426 115.134C132.412 115.146 132.394 115.152 132.376 115.152Z" fill="#263238"/>
<path d="M135.358 100.708C134.828 101.848 134.018 102.837 133.002 103.584C132.829 102.336 133.005 101.065 133.51 99.9097C134.015 98.7545 134.83 97.7595 135.866 97.0336C136.009 98.2813 135.835 99.5448 135.358 100.708Z" fill="#263238"/>
<path d="M127.932 91.1232C128.968 91.8419 129.806 92.8084 130.367 93.9336C129.101 93.8833 127.873 93.4879 126.817 92.7908C125.762 92.0936 124.92 91.1215 124.383 89.9807C125.644 90.0591 126.864 90.452 127.932 91.1232Z" fill="#263238"/>
<path d="M126.675 83.2693C126.846 84.5136 126.7 85.7807 126.249 86.9538C125.427 85.995 124.886 84.8301 124.686 83.5864C124.485 82.3427 124.633 81.0681 125.112 79.9021C125.909 80.8762 126.446 82.0343 126.675 83.2693Z" fill="#007AFF"/>
<path d="M122.39 82.2513C122.403 82.3725 122.38 82.4948 122.324 82.603C122.267 82.7111 122.179 82.8001 122.072 82.8588C121.964 82.9174 121.842 82.9431 121.72 82.9325C121.598 82.9219 121.481 82.8755 121.386 82.7993C121.29 82.723 121.219 82.6203 121.183 82.504C121.146 82.3878 121.144 82.2633 121.179 82.1463C121.213 82.0293 121.281 81.925 121.375 81.8467C121.469 81.7683 121.584 81.7194 121.706 81.7062C121.87 81.6884 122.033 81.7358 122.162 81.8381C122.29 81.9403 122.372 82.0889 122.39 82.2513Z" fill="#007AFF"/>
<path d="M134.248 113.577C134.232 113.577 134.217 113.572 134.204 113.564C134.19 113.555 134.18 113.543 134.174 113.528C131.492 107.184 130.956 100.781 132.58 94.4949C133.57 90.5924 135.38 86.9423 137.89 83.7843C137.904 83.7694 137.923 83.7602 137.943 83.7588C137.964 83.7574 137.984 83.7638 138 83.7767C138.015 83.7897 138.026 83.8081 138.028 83.8283C138.031 83.8485 138.025 83.8688 138.013 83.8851C135.518 87.0252 133.719 90.6544 132.734 94.5345C131.119 100.786 131.652 107.156 134.32 113.468C134.324 113.477 134.326 113.487 134.327 113.498C134.327 113.508 134.325 113.519 134.321 113.528C134.317 113.538 134.311 113.547 134.303 113.554C134.296 113.561 134.287 113.567 134.278 113.571C134.268 113.575 134.258 113.577 134.248 113.577Z" fill="#263238"/>
<path d="M130.6 106.733C131.106 107.258 131.736 107.648 132.433 107.867C132.292 107.152 131.955 106.489 131.46 105.952C130.965 105.414 130.331 105.022 129.627 104.818C129.785 105.528 130.119 106.186 130.6 106.733Z" fill="#007AFF"/>
<path d="M132.919 94.8305C132.472 95.5145 132.206 96.2994 132.145 97.1126C132.894 96.7749 133.536 96.2389 134 95.5632C134.463 94.8875 134.731 94.0981 134.774 93.2813C134.034 93.6347 133.396 94.1675 132.919 94.8305Z" fill="#007AFF"/>
<path d="M132.791 90.0805C132.85 90.747 133.076 91.3879 133.45 91.9441C133.763 91.3495 133.905 90.6809 133.861 90.0114C133.818 89.3418 133.589 88.6971 133.202 88.1478C132.904 88.7474 132.762 89.4121 132.791 90.0805Z" fill="#007AFF"/>
<path d="M136.79 86.0562C136.229 86.4252 135.77 86.9288 135.456 87.5205C136.131 87.5106 136.79 87.3163 137.361 86.9589C137.933 86.6015 138.394 86.0948 138.695 85.4943C138.022 85.5195 137.367 85.7127 136.79 86.0562Z" fill="#007AFF"/>
<path d="M137.416 83.8766C137.424 83.9822 137.464 84.0829 137.53 84.1661C137.596 84.2492 137.685 84.3111 137.786 84.3438C137.887 84.3765 137.996 84.3787 138.099 84.3499C138.201 84.3212 138.293 84.2629 138.362 84.1824C138.431 84.1018 138.475 84.0027 138.487 83.8976C138.5 83.7924 138.481 83.686 138.432 83.5916C138.384 83.4973 138.309 83.4193 138.216 83.3676C138.123 83.3159 138.016 83.2927 137.91 83.301C137.768 83.3123 137.636 83.3792 137.543 83.4871C137.45 83.595 137.405 83.7351 137.416 83.8766Z" fill="#007AFF"/>
<path d="M139.366 118.736L139.067 118.626C139.267 118.07 139.366 117.484 139.359 116.893H139.678C139.685 117.521 139.58 118.145 139.366 118.736Z" fill="#007AFF"/>
<path d="M139.117 115.235C138.784 114.101 138.122 113.089 137.214 112.327L137.42 112.085C138.376 112.888 139.072 113.952 139.423 115.145L139.117 115.235Z" fill="#007AFF"/>
<path d="M135.601 112.221L136.247 109.588H130.438L131.085 112.221C130.198 112.643 129.45 113.306 128.926 114.133C128.402 114.959 128.124 115.916 128.124 116.893C128.124 119.759 130.46 120.792 133.343 120.792C136.226 120.792 138.562 119.757 138.562 116.893C138.561 115.916 138.283 114.959 137.759 114.133C137.235 113.306 136.487 112.643 135.601 112.221Z" fill="#007AFF"/>
</svg>
