<svg id="Layer_1" data-name="Layer 1" xmlns="http://www.w3.org/2000/svg" viewBox="0 0 234.48 234.48"><path d="M123.24,72.85A25.75,25.75,0,1,1,149,47.1,25.78,25.78,0,0,1,123.24,72.85Zm0-46.5A20.75,20.75,0,1,0,144,47.1,20.77,20.77,0,0,0,123.24,26.35Z" transform="translate(-10.76 -10.76)"/><path d="M166.29,228.65a15.22,15.22,0,0,1-2.12-.15A15.65,15.65,0,0,1,153.84,222a3.47,3.47,0,0,1-.44-.83L131,160.28l-11.51,22a21.51,21.51,0,0,1-7.5,9.8L80.85,215.2a3.18,3.18,0,0,1-.43.28,10.69,10.69,0,0,1-6.84,1.4,11.55,11.55,0,0,1-7.6-5.36,16.81,16.81,0,0,1-2.46-12.87,14.07,14.07,0,0,1,3.32-6.12,3.06,3.06,0,0,1,.53-.48l24.14-18a9,9,0,0,0,2.58-2.46,8.84,8.84,0,0,0,1.35-2.94,3.51,3.51,0,0,1,.24-.64l9-19.16-.08-1.66a11.89,11.89,0,0,1-12.14,1.49,11.49,11.49,0,0,1-5.61-6.24,3.52,3.52,0,0,1-.17-.52l-8.73-37.19a13.53,13.53,0,0,1,1.63-11.52,3.74,3.74,0,0,1,.84-.89L104,74.53a13.37,13.37,0,0,1,7.55-2.69L144,70.57a3.75,3.75,0,0,1,.88.08A10.28,10.28,0,0,1,152,76a3.51,3.51,0,0,1,.27.69l5.46,19.19c.71,2.47,1.29,4.95,1.91,7.69a4.45,4.45,0,0,0,.42,1.12,4.53,4.53,0,0,0,1.74,1.81L186.86,121a11.89,11.89,0,0,1,5.83,7.84,11,11,0,0,1-14.45,12.64,3.76,3.76,0,0,1-.55-.23l-23.1-12.15.52,13.7,25.27,68.83a4,4,0,0,1,.17.63,14.08,14.08,0,0,1-1.18,8.71A14.64,14.64,0,0,1,166.29,228.65ZM158,219.26a10.78,10.78,0,0,0,6.85,4.29,9.83,9.83,0,0,0,10-4.88,9,9,0,0,0,.74-5.48l-25.29-68.91a3.85,3.85,0,0,1-.23-1.12l-.61-16.26a3.65,3.65,0,0,1,5.34-3.37l25.08,13.2a6,6,0,0,0,7.85-7,7,7,0,0,0-3.38-4.44l-25.12-14.45a9.73,9.73,0,0,1-3.66-3.81,10.19,10.19,0,0,1-.86-2.33c-.61-2.68-1.17-5.08-1.84-7.44l-5.43-19.06A5.32,5.32,0,0,0,144,75.58l-32.24,1.25A8.45,8.45,0,0,0,107,78.52L83.6,96.2a8.48,8.48,0,0,0-1,2.53,8.77,8.77,0,0,0,.17,4.61l.07.25,8.72,37.15a6.55,6.55,0,0,0,3.07,3.46c2.82,1.34,6.8.22,8-2.25a5.15,5.15,0,0,0,.22-3.53l-5.91-26.25c0-.14-.07-.27-.11-.41a10.1,10.1,0,0,1-.21-4.74,8.92,8.92,0,0,1,3.91-5.67l1.74-1.37a3.12,3.12,0,0,1,5.09,2.25L109.67,149a3.55,3.55,0,0,1-.34,1.73l-9.07,19.36a14.19,14.19,0,0,1-2.07,4.44,14,14,0,0,1-3.94,3.77L70.46,196a9.15,9.15,0,0,0-2.09,3.87,11.84,11.84,0,0,0,1.78,8.91A6.77,6.77,0,0,0,74.37,212a5.79,5.79,0,0,0,3.57-.81L109,188.08a16.75,16.75,0,0,0,3.22-3.07,16.38,16.38,0,0,0,2.57-4.51l.18-.4L128.62,154a3,3,0,0,1,5.55.35Zm-.11-.15h0Zm-80-7.92h0Zm.14-.09h0Zm-7.45-15.23h0Zm58.91-39.75h0ZM155,142.54h0Zm-63.51-1.72v0Zm-.06-.19v0ZM180,136.77h0Zm-.19-.08h0Zm-77.3-30.58a3.79,3.79,0,0,0-1,1.86,5,5,0,0,0,.1,2.4c.07.23.13.47.19.71l1.25,5.56Zm44.92-28h0Zm-3.27-2.5h0Z" transform="translate(-10.76 -10.76)"/><path d="M128,245.24A117.24,117.24,0,1,1,245.24,128,117.37,117.37,0,0,1,128,245.24Zm0-229.48A112.24,112.24,0,1,0,240.24,128,112.37,112.37,0,0,0,128,15.76Z" transform="translate(-10.76 -10.76)"/></svg>