<svg id="Layer_1" data-name="Layer 1" xmlns="http://www.w3.org/2000/svg" viewBox="0 0 245.85 245.85"><path d="M123,70.14a26.9,26.9,0,1,1,26.9-26.9A26.93,26.93,0,0,1,123,70.14Zm0-48.79a21.9,21.9,0,1,0,21.9,21.89A21.92,21.92,0,0,0,123,21.35Z" transform="translate(-5.08 -5.08)"/><path d="M168.19,233.66a15,15,0,0,1-2.21-.16,16.28,16.28,0,0,1-10.76-6.75,4,4,0,0,1-.46-.87l-23.59-64.15-12.23,23.4a22.39,22.39,0,0,1-7.82,10.21L78.44,219.58a3.74,3.74,0,0,1-.42.27,11.15,11.15,0,0,1-7.12,1.47A12.05,12.05,0,0,1,63,215.74a17.54,17.54,0,0,1-2.57-13.4A14.72,14.72,0,0,1,63.9,196a3.57,3.57,0,0,1,.54-.49l25.33-18.84A9.6,9.6,0,0,0,92.51,174,9.49,9.49,0,0,0,94,170.89a3.71,3.71,0,0,1,.24-.66l9.44-20.13-.1-2a12.35,12.35,0,0,1-12.8,1.7,12,12,0,0,1-5.83-6.48,3.33,3.33,0,0,1-.16-.51l-9.18-39.1a14.1,14.1,0,0,1,1.7-12,3.71,3.71,0,0,1,.86-.91l24.78-18.7a13.79,13.79,0,0,1,7.85-2.81l34-1.33a3.92,3.92,0,0,1,.9.08,10.88,10.88,0,0,1,4.75,2.28,10.64,10.64,0,0,1,2.65,3.3,3.94,3.94,0,0,1,.26.66l5.75,20.18c.74,2.6,1.34,5.19,2,8.06a5.37,5.37,0,0,0,.44,1.2,4.93,4.93,0,0,0,1.88,2l26.31,15.14a12.31,12.31,0,0,1,6.06,8.15,11.37,11.37,0,0,1-15,13.12,3.25,3.25,0,0,1-.54-.23L155.78,129l.55,14.62,26.53,72.26a4.34,4.34,0,0,1,.18.66,14.62,14.62,0,0,1-1.24,9A15.23,15.23,0,0,1,168.19,233.66ZM159.4,224a11.19,11.19,0,0,0,7.28,4.56,10.41,10.41,0,0,0,10.65-5.18,9.53,9.53,0,0,0,.79-5.84l-26.55-72.34a3.43,3.43,0,0,1-.22-1.13L150.7,127a3.7,3.7,0,0,1,5.42-3.43l26.34,13.86a6.39,6.39,0,0,0,8.4-7.48,7.38,7.38,0,0,0-3.61-4.74L160.89,110a9.92,9.92,0,0,1-3.79-3.94,10.06,10.06,0,0,1-.89-2.42c-.64-2.81-1.23-5.33-1.94-7.82l-5.7-20A5.7,5.7,0,0,0,144.81,73L111,74.33a8.83,8.83,0,0,0-5,1.8L81.31,94.7a9,9,0,0,0-1.14,2.71,9.29,9.29,0,0,0,.19,4.9l.07.25,9.16,39a7,7,0,0,0,3.28,3.71c3,1.42,7.27.23,8.6-2.42a5.49,5.49,0,0,0,.24-3.79l-6.2-27.55c0-.14-.08-.29-.12-.44a10.42,10.42,0,0,1-.21-4.91,9.23,9.23,0,0,1,4-5.88l1.84-1.44a3.14,3.14,0,0,1,5.13,2.27l2.44,49.06a3.68,3.68,0,0,1-.35,1.76l-9.53,20.32a14.44,14.44,0,0,1-2.15,4.64,14.63,14.63,0,0,1-4.13,3.94l-25,18.58a9.66,9.66,0,0,0-2.23,4.12A12.54,12.54,0,0,0,67.18,213a7.12,7.12,0,0,0,4.51,3.4,6.1,6.1,0,0,0,3.84-.87l32.64-24.2a17.51,17.51,0,0,0,6.12-8l.18-.4,14.3-27.35a3,3,0,0,1,2.91-1.64,3.07,3.07,0,0,1,2.68,2Zm18.7-6.58v0ZM67.43,199.48h0Zm.18-.17Zm31.1-26.95Zm31-14.74h0Zm-28.28-52.71a4.05,4.05,0,0,0-1.29,2.2,5.49,5.49,0,0,0,.1,2.57c.07.24.14.49.2.73l1.63,7.25ZM148.63,76v0Z" transform="translate(-5.08 -5.08)"/><path d="M128,250.92A122.92,122.92,0,1,1,250.92,128,123.06,123.06,0,0,1,128,250.92Zm0-240.84A117.92,117.92,0,1,0,245.92,128,118.06,118.06,0,0,0,128,10.08Z" transform="translate(-5.08 -5.08)"/><rect x="123.53" y="9.83" width="5" height="241.91" transform="translate(-60.64 122.35) rotate(-45)"/></svg>