<?xml version="1.0" encoding="utf-8"?>
<!-- Generator: Adobe Illustrator 24.2.1, SVG Export Plug-In . SVG Version: 6.00 Build 0)  -->
<svg version="1.1" id="Layer_1" xmlns="http://www.w3.org/2000/svg" xmlns:xlink="http://www.w3.org/1999/xlink" x="0px" y="0px"
	 viewBox="0 0 200 53.41" style="enable-background:new 0 0 200 53.41;" xml:space="preserve">
<style type="text/css">
	.st0{fill:#332C7D;}
	.st1{fill:#2E2C7D;}
</style>
<g>
	<g>
		<g>
			<rect x="24.97" y="9.97" class="st0" width="0.33" height="0.33"/>
			<rect x="25.3" y="9.97" class="st0" width="0.33" height="0.33"/>
			<rect x="25.63" y="9.97" class="st0" width="0.33" height="0.33"/>
			<rect x="25.96" y="9.97" class="st0" width="0.33" height="0.33"/>
			<rect x="26.29" y="9.97" class="st0" width="0.33" height="0.33"/>
			<rect x="26.62" y="9.97" class="st0" width="0.33" height="0.33"/>
			<rect x="26.96" y="9.97" class="st0" width="0.33" height="0.33"/>
			<rect x="27.62" y="9.97" class="st0" width="0.33" height="0.33"/>
			<rect x="27.95" y="9.97" class="st0" width="0.33" height="0.33"/>
			<rect x="28.28" y="9.97" class="st0" width="0.33" height="0.33"/>
			<rect x="28.61" y="9.97" class="st0" width="0.33" height="0.33"/>
			<rect x="29.61" y="9.97" class="st0" width="0.33" height="0.33"/>
			<rect x="30.93" y="9.97" class="st0" width="0.33" height="0.33"/>
			<rect x="31.27" y="9.97" class="st0" width="0.33" height="0.33"/>
			<rect x="31.6" y="9.97" class="st0" width="0.33" height="0.33"/>
			<rect x="31.93" y="9.97" class="st0" width="0.33" height="0.33"/>
			<rect x="32.26" y="9.97" class="st0" width="0.33" height="0.33"/>
			<rect x="32.59" y="9.97" class="st0" width="0.33" height="0.33"/>
			<rect x="32.92" y="9.97" class="st0" width="0.33" height="0.33"/>
			<rect x="24.97" y="10.3" class="st0" width="0.33" height="0.33"/>
			<rect x="26.96" y="10.3" class="st0" width="0.33" height="0.33"/>
			<rect x="28.61" y="10.3" class="st0" width="0.33" height="0.33"/>
			<rect x="28.94" y="10.3" class="st0" width="0.33" height="0.33"/>
			<rect x="29.28" y="10.3" class="st0" width="0.33" height="0.33"/>
			<rect x="29.61" y="10.3" class="st0" width="0.33" height="0.33"/>
			<rect x="30.93" y="10.3" class="st0" width="0.33" height="0.33"/>
			<rect x="32.92" y="10.3" class="st0" width="0.33" height="0.33"/>
			<rect x="24.97" y="10.63" class="st0" width="0.33" height="0.33"/>
			<rect x="25.63" y="10.63" class="st0" width="0.33" height="0.33"/>
			<rect x="25.96" y="10.63" class="st0" width="0.33" height="0.33"/>
			<rect x="26.29" y="10.63" class="st0" width="0.33" height="0.33"/>
			<rect x="26.96" y="10.63" class="st0" width="0.33" height="0.33"/>
			<rect x="27.95" y="10.63" class="st0" width="0.33" height="0.33"/>
			<rect x="28.61" y="10.63" class="st0" width="0.33" height="0.33"/>
			<rect x="29.28" y="10.63" class="st0" width="0.33" height="0.33"/>
			<rect x="29.61" y="10.63" class="st0" width="0.33" height="0.33"/>
			<rect x="30.93" y="10.63" class="st0" width="0.33" height="0.33"/>
			<rect x="31.6" y="10.63" class="st0" width="0.33" height="0.33"/>
			<rect x="31.93" y="10.63" class="st0" width="0.33" height="0.33"/>
			<rect x="32.26" y="10.63" class="st0" width="0.33" height="0.33"/>
			<rect x="32.92" y="10.63" class="st0" width="0.33" height="0.33"/>
			<rect x="24.97" y="10.96" class="st0" width="0.33" height="0.33"/>
			<rect x="25.63" y="10.96" class="st0" width="0.33" height="0.33"/>
			<rect x="25.96" y="10.96" class="st0" width="0.33" height="0.33"/>
			<rect x="26.29" y="10.96" class="st0" width="0.33" height="0.33"/>
			<rect x="26.96" y="10.96" class="st0" width="0.33" height="0.33"/>
			<rect x="28.28" y="10.96" class="st0" width="0.33" height="0.33"/>
			<rect x="28.61" y="10.96" class="st0" width="0.33" height="0.33"/>
			<rect x="29.28" y="10.96" class="st0" width="0.33" height="0.33"/>
			<rect x="29.94" y="10.96" class="st0" width="0.33" height="0.33"/>
			<rect x="30.27" y="10.96" class="st0" width="0.33" height="0.33"/>
			<rect x="30.93" y="10.96" class="st0" width="0.33" height="0.33"/>
			<rect x="31.6" y="10.96" class="st0" width="0.33" height="0.33"/>
			<rect x="31.93" y="10.96" class="st0" width="0.33" height="0.33"/>
			<rect x="32.26" y="10.96" class="st0" width="0.33" height="0.33"/>
			<rect x="32.92" y="10.96" class="st0" width="0.33" height="0.33"/>
			<rect x="24.97" y="11.29" class="st0" width="0.33" height="0.33"/>
			<rect x="25.63" y="11.29" class="st0" width="0.33" height="0.33"/>
			<rect x="25.96" y="11.29" class="st0" width="0.33" height="0.33"/>
			<rect x="26.29" y="11.29" class="st0" width="0.33" height="0.33"/>
			<rect x="26.96" y="11.29" class="st0" width="0.33" height="0.33"/>
			<rect x="28.28" y="11.29" class="st0" width="0.33" height="0.33"/>
			<rect x="28.61" y="11.29" class="st0" width="0.33" height="0.33"/>
			<rect x="28.94" y="11.29" class="st0" width="0.33" height="0.33"/>
			<rect x="29.28" y="11.29" class="st0" width="0.33" height="0.33"/>
			<rect x="29.61" y="11.29" class="st0" width="0.33" height="0.33"/>
			<rect x="30.93" y="11.29" class="st0" width="0.33" height="0.33"/>
			<rect x="31.6" y="11.29" class="st0" width="0.33" height="0.33"/>
			<rect x="31.93" y="11.29" class="st0" width="0.33" height="0.33"/>
			<rect x="32.26" y="11.29" class="st0" width="0.33" height="0.33"/>
			<rect x="32.92" y="11.29" class="st0" width="0.33" height="0.33"/>
			<rect x="24.97" y="11.63" class="st0" width="0.33" height="0.33"/>
			<rect x="26.96" y="11.63" class="st0" width="0.33" height="0.33"/>
			<rect x="27.95" y="11.63" class="st0" width="0.33" height="0.33"/>
			<rect x="28.61" y="11.63" class="st0" width="0.33" height="0.33"/>
			<rect x="29.28" y="11.63" class="st0" width="0.33" height="0.33"/>
			<rect x="29.61" y="11.63" class="st0" width="0.33" height="0.33"/>
			<rect x="30.27" y="11.63" class="st0" width="0.33" height="0.33"/>
			<rect x="30.93" y="11.63" class="st0" width="0.33" height="0.33"/>
			<rect x="32.92" y="11.63" class="st0" width="0.33" height="0.33"/>
			<rect x="24.97" y="11.96" class="st0" width="0.33" height="0.33"/>
			<rect x="25.3" y="11.96" class="st0" width="0.33" height="0.33"/>
			<rect x="25.63" y="11.96" class="st0" width="0.33" height="0.33"/>
			<rect x="25.96" y="11.96" class="st0" width="0.33" height="0.33"/>
			<rect x="26.29" y="11.96" class="st0" width="0.33" height="0.33"/>
			<rect x="26.62" y="11.96" class="st0" width="0.33" height="0.33"/>
			<rect x="26.96" y="11.96" class="st0" width="0.33" height="0.33"/>
			<rect x="27.62" y="11.96" class="st0" width="0.33" height="0.33"/>
			<rect x="28.28" y="11.96" class="st0" width="0.33" height="0.33"/>
			<rect x="28.94" y="11.96" class="st0" width="0.33" height="0.33"/>
			<rect x="29.61" y="11.96" class="st0" width="0.33" height="0.33"/>
			<rect x="30.27" y="11.96" class="st0" width="0.33" height="0.33"/>
			<rect x="30.93" y="11.96" class="st0" width="0.33" height="0.33"/>
			<rect x="31.27" y="11.96" class="st0" width="0.33" height="0.33"/>
			<rect x="31.6" y="11.96" class="st0" width="0.33" height="0.33"/>
			<rect x="31.93" y="11.96" class="st0" width="0.33" height="0.33"/>
			<rect x="32.26" y="11.96" class="st0" width="0.33" height="0.33"/>
			<rect x="32.59" y="11.96" class="st0" width="0.33" height="0.33"/>
			<rect x="32.92" y="11.96" class="st0" width="0.33" height="0.33"/>
			<rect x="27.62" y="12.29" class="st0" width="0.33" height="0.33"/>
			<rect x="27.95" y="12.29" class="st0" width="0.33" height="0.33"/>
			<rect x="28.94" y="12.29" class="st0" width="0.33" height="0.33"/>
			<rect x="29.28" y="12.29" class="st0" width="0.33" height="0.33"/>
			<rect x="29.94" y="12.29" class="st0" width="0.33" height="0.33"/>
			<rect x="24.97" y="12.62" class="st0" width="0.33" height="0.33"/>
			<rect x="25.3" y="12.62" class="st0" width="0.33" height="0.33"/>
			<rect x="25.96" y="12.62" class="st0" width="0.33" height="0.33"/>
			<rect x="26.29" y="12.62" class="st0" width="0.33" height="0.33"/>
			<rect x="26.96" y="12.62" class="st0" width="0.33" height="0.33"/>
			<rect x="27.95" y="12.62" class="st0" width="0.33" height="0.33"/>
			<rect x="28.94" y="12.62" class="st0" width="0.33" height="0.33"/>
			<rect x="30.93" y="12.62" class="st0" width="0.33" height="0.33"/>
			<rect x="32.92" y="12.62" class="st0" width="0.33" height="0.33"/>
			<rect x="25.3" y="12.95" class="st0" width="0.33" height="0.33"/>
			<rect x="25.63" y="12.95" class="st0" width="0.33" height="0.33"/>
			<rect x="27.29" y="12.95" class="st0" width="0.33" height="0.33"/>
			<rect x="28.28" y="12.95" class="st0" width="0.33" height="0.33"/>
			<rect x="29.28" y="12.95" class="st0" width="0.33" height="0.33"/>
			<rect x="29.61" y="12.95" class="st0" width="0.33" height="0.33"/>
			<rect x="29.94" y="12.95" class="st0" width="0.33" height="0.33"/>
			<rect x="31.27" y="12.95" class="st0" width="0.33" height="0.33"/>
			<rect x="31.6" y="12.95" class="st0" width="0.33" height="0.33"/>
			<rect x="31.93" y="12.95" class="st0" width="0.33" height="0.33"/>
			<rect x="32.26" y="12.95" class="st0" width="0.33" height="0.33"/>
			<rect x="32.59" y="12.95" class="st0" width="0.33" height="0.33"/>
			<rect x="24.97" y="13.28" class="st0" width="0.33" height="0.33"/>
			<rect x="25.63" y="13.28" class="st0" width="0.33" height="0.33"/>
			<rect x="25.96" y="13.28" class="st0" width="0.33" height="0.33"/>
			<rect x="26.29" y="13.28" class="st0" width="0.33" height="0.33"/>
			<rect x="26.96" y="13.28" class="st0" width="0.33" height="0.33"/>
			<rect x="27.29" y="13.28" class="st0" width="0.33" height="0.33"/>
			<rect x="27.95" y="13.28" class="st0" width="0.33" height="0.33"/>
			<rect x="28.94" y="13.28" class="st0" width="0.33" height="0.33"/>
			<rect x="29.28" y="13.28" class="st0" width="0.33" height="0.33"/>
			<rect x="29.94" y="13.28" class="st0" width="0.33" height="0.33"/>
			<rect x="30.6" y="13.28" class="st0" width="0.33" height="0.33"/>
			<rect x="31.93" y="13.28" class="st0" width="0.33" height="0.33"/>
			<rect x="32.92" y="13.28" class="st0" width="0.33" height="0.33"/>
			<rect x="24.97" y="13.62" class="st0" width="0.33" height="0.33"/>
			<rect x="25.96" y="13.62" class="st0" width="0.33" height="0.33"/>
			<rect x="26.29" y="13.62" class="st0" width="0.33" height="0.33"/>
			<rect x="26.62" y="13.62" class="st0" width="0.33" height="0.33"/>
			<rect x="27.62" y="13.62" class="st0" width="0.33" height="0.33"/>
			<rect x="29.61" y="13.62" class="st0" width="0.33" height="0.33"/>
			<rect x="29.94" y="13.62" class="st0" width="0.33" height="0.33"/>
			<rect x="30.27" y="13.62" class="st0" width="0.33" height="0.33"/>
			<rect x="30.93" y="13.62" class="st0" width="0.33" height="0.33"/>
			<rect x="31.27" y="13.62" class="st0" width="0.33" height="0.33"/>
			<rect x="31.93" y="13.62" class="st0" width="0.33" height="0.33"/>
			<rect x="32.26" y="13.62" class="st0" width="0.33" height="0.33"/>
			<rect x="32.59" y="13.62" class="st0" width="0.33" height="0.33"/>
			<rect x="32.92" y="13.62" class="st0" width="0.33" height="0.33"/>
			<rect x="24.97" y="13.95" class="st0" width="0.33" height="0.33"/>
			<rect x="25.3" y="13.95" class="st0" width="0.33" height="0.33"/>
			<rect x="25.96" y="13.95" class="st0" width="0.33" height="0.33"/>
			<rect x="26.96" y="13.95" class="st0" width="0.33" height="0.33"/>
			<rect x="27.62" y="13.95" class="st0" width="0.33" height="0.33"/>
			<rect x="27.95" y="13.95" class="st0" width="0.33" height="0.33"/>
			<rect x="28.28" y="13.95" class="st0" width="0.33" height="0.33"/>
			<rect x="29.28" y="13.95" class="st0" width="0.33" height="0.33"/>
			<rect x="29.61" y="13.95" class="st0" width="0.33" height="0.33"/>
			<rect x="29.94" y="13.95" class="st0" width="0.33" height="0.33"/>
			<rect x="30.93" y="13.95" class="st0" width="0.33" height="0.33"/>
			<rect x="32.92" y="13.95" class="st0" width="0.33" height="0.33"/>
			<rect x="24.97" y="14.28" class="st0" width="0.33" height="0.33"/>
			<rect x="25.3" y="14.28" class="st0" width="0.33" height="0.33"/>
			<rect x="25.63" y="14.28" class="st0" width="0.33" height="0.33"/>
			<rect x="26.62" y="14.28" class="st0" width="0.33" height="0.33"/>
			<rect x="27.62" y="14.28" class="st0" width="0.33" height="0.33"/>
			<rect x="28.28" y="14.28" class="st0" width="0.33" height="0.33"/>
			<rect x="28.94" y="14.28" class="st0" width="0.33" height="0.33"/>
			<rect x="29.61" y="14.28" class="st0" width="0.33" height="0.33"/>
			<rect x="29.94" y="14.28" class="st0" width="0.33" height="0.33"/>
			<rect x="30.27" y="14.28" class="st0" width="0.33" height="0.33"/>
			<rect x="30.6" y="14.28" class="st0" width="0.33" height="0.33"/>
			<rect x="31.6" y="14.28" class="st0" width="0.33" height="0.33"/>
			<rect x="32.59" y="14.28" class="st0" width="0.33" height="0.33"/>
			<rect x="24.97" y="14.61" class="st0" width="0.33" height="0.33"/>
			<rect x="25.3" y="14.61" class="st0" width="0.33" height="0.33"/>
			<rect x="25.63" y="14.61" class="st0" width="0.33" height="0.33"/>
			<rect x="25.96" y="14.61" class="st0" width="0.33" height="0.33"/>
			<rect x="26.62" y="14.61" class="st0" width="0.33" height="0.33"/>
			<rect x="26.96" y="14.61" class="st0" width="0.33" height="0.33"/>
			<rect x="27.95" y="14.61" class="st0" width="0.33" height="0.33"/>
			<rect x="29.61" y="14.61" class="st0" width="0.33" height="0.33"/>
			<rect x="29.94" y="14.61" class="st0" width="0.33" height="0.33"/>
			<rect x="30.93" y="14.61" class="st0" width="0.33" height="0.33"/>
			<rect x="31.6" y="14.61" class="st0" width="0.33" height="0.33"/>
			<rect x="31.93" y="14.61" class="st0" width="0.33" height="0.33"/>
			<rect x="32.26" y="14.61" class="st0" width="0.33" height="0.33"/>
			<rect x="32.59" y="14.61" class="st0" width="0.33" height="0.33"/>
			<rect x="32.92" y="14.61" class="st0" width="0.33" height="0.33"/>
			<rect x="24.97" y="14.94" class="st0" width="0.33" height="0.33"/>
			<rect x="26.29" y="14.94" class="st0" width="0.33" height="0.33"/>
			<rect x="26.62" y="14.94" class="st0" width="0.33" height="0.33"/>
			<rect x="27.29" y="14.94" class="st0" width="0.33" height="0.33"/>
			<rect x="28.28" y="14.94" class="st0" width="0.33" height="0.33"/>
			<rect x="28.94" y="14.94" class="st0" width="0.33" height="0.33"/>
			<rect x="29.28" y="14.94" class="st0" width="0.33" height="0.33"/>
			<rect x="29.61" y="14.94" class="st0" width="0.33" height="0.33"/>
			<rect x="29.94" y="14.94" class="st0" width="0.33" height="0.33"/>
			<rect x="30.6" y="14.94" class="st0" width="0.33" height="0.33"/>
			<rect x="31.27" y="14.94" class="st0" width="0.33" height="0.33"/>
			<rect x="31.93" y="14.94" class="st0" width="0.33" height="0.33"/>
			<rect x="32.26" y="14.94" class="st0" width="0.33" height="0.33"/>
			<rect x="32.92" y="14.94" class="st0" width="0.33" height="0.33"/>
			<rect x="24.97" y="15.27" class="st0" width="0.33" height="0.33"/>
			<rect x="25.96" y="15.27" class="st0" width="0.33" height="0.33"/>
			<rect x="26.96" y="15.27" class="st0" width="0.33" height="0.33"/>
			<rect x="27.62" y="15.27" class="st0" width="0.33" height="0.33"/>
			<rect x="28.28" y="15.27" class="st0" width="0.33" height="0.33"/>
			<rect x="28.61" y="15.27" class="st0" width="0.33" height="0.33"/>
			<rect x="28.94" y="15.27" class="st0" width="0.33" height="0.33"/>
			<rect x="30.27" y="15.27" class="st0" width="0.33" height="0.33"/>
			<rect x="30.6" y="15.27" class="st0" width="0.33" height="0.33"/>
			<rect x="30.93" y="15.27" class="st0" width="0.33" height="0.33"/>
			<rect x="31.27" y="15.27" class="st0" width="0.33" height="0.33"/>
			<rect x="31.6" y="15.27" class="st0" width="0.33" height="0.33"/>
			<rect x="32.26" y="15.27" class="st0" width="0.33" height="0.33"/>
			<rect x="32.59" y="15.27" class="st0" width="0.33" height="0.33"/>
			<rect x="27.62" y="15.61" class="st0" width="0.33" height="0.33"/>
			<rect x="28.28" y="15.61" class="st0" width="0.33" height="0.33"/>
			<rect x="28.61" y="15.61" class="st0" width="0.33" height="0.33"/>
			<rect x="30.27" y="15.61" class="st0" width="0.33" height="0.33"/>
			<rect x="31.6" y="15.61" class="st0" width="0.33" height="0.33"/>
			<rect x="32.26" y="15.61" class="st0" width="0.33" height="0.33"/>
			<rect x="32.59" y="15.61" class="st0" width="0.33" height="0.33"/>
			<rect x="24.97" y="15.94" class="st0" width="0.33" height="0.33"/>
			<rect x="25.3" y="15.94" class="st0" width="0.33" height="0.33"/>
			<rect x="25.63" y="15.94" class="st0" width="0.33" height="0.33"/>
			<rect x="25.96" y="15.94" class="st0" width="0.33" height="0.33"/>
			<rect x="26.29" y="15.94" class="st0" width="0.33" height="0.33"/>
			<rect x="26.62" y="15.94" class="st0" width="0.33" height="0.33"/>
			<rect x="26.96" y="15.94" class="st0" width="0.33" height="0.33"/>
			<rect x="27.95" y="15.94" class="st0" width="0.33" height="0.33"/>
			<rect x="28.28" y="15.94" class="st0" width="0.33" height="0.33"/>
			<rect x="28.94" y="15.94" class="st0" width="0.33" height="0.33"/>
			<rect x="29.28" y="15.94" class="st0" width="0.33" height="0.33"/>
			<rect x="29.61" y="15.94" class="st0" width="0.33" height="0.33"/>
			<rect x="30.27" y="15.94" class="st0" width="0.33" height="0.33"/>
			<rect x="30.93" y="15.94" class="st0" width="0.33" height="0.33"/>
			<rect x="31.6" y="15.94" class="st0" width="0.33" height="0.33"/>
			<rect x="32.92" y="15.94" class="st0" width="0.33" height="0.33"/>
			<rect x="24.97" y="16.27" class="st0" width="0.33" height="0.33"/>
			<rect x="26.96" y="16.27" class="st0" width="0.33" height="0.33"/>
			<rect x="27.95" y="16.27" class="st0" width="0.33" height="0.33"/>
			<rect x="28.61" y="16.27" class="st0" width="0.33" height="0.33"/>
			<rect x="29.28" y="16.27" class="st0" width="0.33" height="0.33"/>
			<rect x="29.94" y="16.27" class="st0" width="0.33" height="0.33"/>
			<rect x="30.27" y="16.27" class="st0" width="0.33" height="0.33"/>
			<rect x="31.6" y="16.27" class="st0" width="0.33" height="0.33"/>
			<rect x="32.92" y="16.27" class="st0" width="0.33" height="0.33"/>
			<rect x="24.97" y="16.6" class="st0" width="0.33" height="0.33"/>
			<rect x="25.63" y="16.6" class="st0" width="0.33" height="0.33"/>
			<rect x="25.96" y="16.6" class="st0" width="0.33" height="0.33"/>
			<rect x="26.29" y="16.6" class="st0" width="0.33" height="0.33"/>
			<rect x="26.96" y="16.6" class="st0" width="0.33" height="0.33"/>
			<rect x="27.62" y="16.6" class="st0" width="0.33" height="0.33"/>
			<rect x="27.95" y="16.6" class="st0" width="0.33" height="0.33"/>
			<rect x="28.61" y="16.6" class="st0" width="0.33" height="0.33"/>
			<rect x="29.28" y="16.6" class="st0" width="0.33" height="0.33"/>
			<rect x="29.94" y="16.6" class="st0" width="0.33" height="0.33"/>
			<rect x="30.27" y="16.6" class="st0" width="0.33" height="0.33"/>
			<rect x="30.6" y="16.6" class="st0" width="0.33" height="0.33"/>
			<rect x="30.93" y="16.6" class="st0" width="0.33" height="0.33"/>
			<rect x="31.27" y="16.6" class="st0" width="0.33" height="0.33"/>
			<rect x="31.6" y="16.6" class="st0" width="0.33" height="0.33"/>
			<rect x="32.59" y="16.6" class="st0" width="0.33" height="0.33"/>
			<rect x="32.92" y="16.6" class="st0" width="0.33" height="0.33"/>
			<rect x="24.97" y="16.93" class="st0" width="0.33" height="0.33"/>
			<rect x="25.63" y="16.93" class="st0" width="0.33" height="0.33"/>
			<rect x="25.96" y="16.93" class="st0" width="0.33" height="0.33"/>
			<rect x="26.29" y="16.93" class="st0" width="0.33" height="0.33"/>
			<rect x="26.96" y="16.93" class="st0" width="0.33" height="0.33"/>
			<rect x="27.62" y="16.93" class="st0" width="0.33" height="0.33"/>
			<rect x="27.95" y="16.93" class="st0" width="0.33" height="0.33"/>
			<rect x="28.94" y="16.93" class="st0" width="0.33" height="0.33"/>
			<rect x="29.28" y="16.93" class="st0" width="0.33" height="0.33"/>
			<rect x="30.27" y="16.93" class="st0" width="0.33" height="0.33"/>
			<rect x="30.6" y="16.93" class="st0" width="0.33" height="0.33"/>
			<rect x="30.93" y="16.93" class="st0" width="0.33" height="0.33"/>
			<rect x="32.59" y="16.93" class="st0" width="0.33" height="0.33"/>
			<rect x="32.92" y="16.93" class="st0" width="0.33" height="0.33"/>
			<rect x="24.97" y="17.26" class="st0" width="0.33" height="0.33"/>
			<rect x="25.63" y="17.26" class="st0" width="0.33" height="0.33"/>
			<rect x="25.96" y="17.26" class="st0" width="0.33" height="0.33"/>
			<rect x="26.29" y="17.26" class="st0" width="0.33" height="0.33"/>
			<rect x="26.96" y="17.26" class="st0" width="0.33" height="0.33"/>
			<rect x="27.95" y="17.26" class="st0" width="0.33" height="0.33"/>
			<rect x="28.61" y="17.26" class="st0" width="0.33" height="0.33"/>
			<rect x="29.28" y="17.26" class="st0" width="0.33" height="0.33"/>
			<rect x="30.6" y="17.26" class="st0" width="0.33" height="0.33"/>
			<rect x="31.6" y="17.26" class="st0" width="0.33" height="0.33"/>
			<rect x="31.93" y="17.26" class="st0" width="0.33" height="0.33"/>
			<rect x="32.26" y="17.26" class="st0" width="0.33" height="0.33"/>
			<rect x="32.59" y="17.26" class="st0" width="0.33" height="0.33"/>
			<rect x="32.92" y="17.26" class="st0" width="0.33" height="0.33"/>
			<rect x="24.97" y="17.59" class="st0" width="0.33" height="0.33"/>
			<rect x="26.96" y="17.59" class="st0" width="0.33" height="0.33"/>
			<rect x="27.62" y="17.59" class="st0" width="0.33" height="0.33"/>
			<rect x="28.28" y="17.59" class="st0" width="0.33" height="0.33"/>
			<rect x="28.61" y="17.59" class="st0" width="0.33" height="0.33"/>
			<rect x="28.94" y="17.59" class="st0" width="0.33" height="0.33"/>
			<rect x="29.28" y="17.59" class="st0" width="0.33" height="0.33"/>
			<rect x="29.94" y="17.59" class="st0" width="0.33" height="0.33"/>
			<rect x="30.6" y="17.59" class="st0" width="0.33" height="0.33"/>
			<rect x="31.27" y="17.59" class="st0" width="0.33" height="0.33"/>
			<rect x="31.6" y="17.59" class="st0" width="0.33" height="0.33"/>
			<rect x="32.26" y="17.59" class="st0" width="0.33" height="0.33"/>
			<rect x="32.59" y="17.59" class="st0" width="0.33" height="0.33"/>
			<rect x="32.92" y="17.59" class="st0" width="0.33" height="0.33"/>
			<rect x="24.97" y="17.93" class="st0" width="0.33" height="0.33"/>
			<rect x="25.3" y="17.93" class="st0" width="0.33" height="0.33"/>
			<rect x="25.63" y="17.93" class="st0" width="0.33" height="0.33"/>
			<rect x="25.96" y="17.93" class="st0" width="0.33" height="0.33"/>
			<rect x="26.29" y="17.93" class="st0" width="0.33" height="0.33"/>
			<rect x="26.62" y="17.93" class="st0" width="0.33" height="0.33"/>
			<rect x="26.96" y="17.93" class="st0" width="0.33" height="0.33"/>
			<rect x="27.62" y="17.93" class="st0" width="0.33" height="0.33"/>
			<rect x="27.95" y="17.93" class="st0" width="0.33" height="0.33"/>
			<rect x="28.28" y="17.93" class="st0" width="0.33" height="0.33"/>
			<rect x="28.61" y="17.93" class="st0" width="0.33" height="0.33"/>
			<rect x="28.94" y="17.93" class="st0" width="0.33" height="0.33"/>
			<rect x="29.28" y="17.93" class="st0" width="0.33" height="0.33"/>
			<rect x="30.27" y="17.93" class="st0" width="0.33" height="0.33"/>
			<rect x="30.93" y="17.93" class="st0" width="0.33" height="0.33"/>
			<rect x="31.93" y="17.93" class="st0" width="0.33" height="0.33"/>
			<rect x="32.92" y="17.93" class="st0" width="0.33" height="0.33"/>
		</g>
	</g>
	<g>
		<g>
			<path class="st1" d="M39.71,21.31c0.56-0.12,1.07-0.18,1.54-0.21c0.47-0.02,0.88-0.03,1.23-0.03c0.46,0,0.92,0.01,1.39,0.03
				c0.46,0.02,0.89,0.08,1.28,0.17l3.92,13.36l3.85-13.36c0.39-0.07,0.81-0.12,1.25-0.16c0.44-0.03,0.88-0.05,1.32-0.05
				c0.35,0,0.75,0.01,1.2,0.03c0.45,0.02,0.97,0.09,1.54,0.21l-6.8,17.9c-0.44,0.07-0.9,0.12-1.39,0.14
				c-0.49,0.02-0.89,0.03-1.21,0.03c-0.35,0-0.74-0.01-1.18-0.03c-0.44-0.02-0.86-0.08-1.25-0.17L39.71,21.31z"/>
			<path class="st1" d="M61.81,25.03h-2.32c-0.07-0.3-0.12-0.62-0.16-0.95c-0.03-0.34-0.05-0.65-0.05-0.95
				c0-0.62,0.07-1.24,0.21-1.84h7.15v17.94c-0.83,0.14-1.64,0.21-2.43,0.21c-0.76,0-1.56-0.07-2.39-0.21V25.03z M61.08,18.26
				c-0.14-0.79-0.21-1.56-0.21-2.32c0-0.74,0.07-1.51,0.21-2.32c0.39-0.07,0.82-0.12,1.27-0.16s0.86-0.05,1.23-0.05
				c0.39,0,0.82,0.02,1.28,0.05c0.46,0.03,0.89,0.09,1.28,0.16c0.07,0.39,0.12,0.78,0.14,1.16c0.02,0.38,0.03,0.77,0.03,1.16
				c0,0.37-0.01,0.75-0.03,1.15c-0.02,0.39-0.07,0.79-0.14,1.18c-0.39,0.07-0.82,0.12-1.27,0.14c-0.45,0.02-0.87,0.03-1.27,0.03
				c-0.37,0-0.79-0.01-1.25-0.03C61.9,18.38,61.48,18.33,61.08,18.26z"/>
			<path class="st1" d="M74.96,31.41c-1.3-0.37-2.31-0.92-3.04-1.65c-0.73-0.73-1.09-1.82-1.09-3.28c0-1.76,0.63-3.13,1.89-4.13
				c1.26-0.99,2.98-1.49,5.15-1.49c0.9,0,1.79,0.08,2.67,0.24c0.88,0.16,1.77,0.4,2.67,0.73c-0.05,0.6-0.16,1.23-0.35,1.87
				c-0.19,0.65-0.41,1.21-0.66,1.7c-0.56-0.23-1.17-0.43-1.84-0.61c-0.67-0.17-1.38-0.26-2.12-0.26c-0.79,0-1.4,0.12-1.84,0.36
				c-0.44,0.24-0.66,0.63-0.66,1.16c0,0.51,0.16,0.87,0.47,1.08c0.31,0.21,0.76,0.4,1.34,0.59l1.98,0.59
				c0.65,0.19,1.23,0.41,1.75,0.68c0.52,0.27,0.97,0.6,1.34,0.99c0.37,0.39,0.66,0.88,0.87,1.46c0.21,0.58,0.31,1.28,0.31,2.12
				c0,0.86-0.18,1.65-0.54,2.39c-0.36,0.74-0.88,1.38-1.56,1.93c-0.68,0.54-1.51,0.97-2.48,1.28c-0.97,0.31-2.07,0.47-3.3,0.47
				c-0.56,0-1.06-0.02-1.53-0.05c-0.46-0.03-0.91-0.09-1.34-0.17c-0.43-0.08-0.85-0.18-1.27-0.29c-0.42-0.12-0.87-0.27-1.35-0.45
				c0.05-0.62,0.16-1.25,0.33-1.89c0.17-0.64,0.4-1.25,0.68-1.86c0.76,0.3,1.49,0.53,2.17,0.68c0.68,0.15,1.39,0.23,2.13,0.23
				c0.32,0,0.68-0.03,1.06-0.09c0.38-0.06,0.73-0.16,1.06-0.31c0.32-0.15,0.6-0.35,0.82-0.59c0.22-0.24,0.33-0.56,0.33-0.95
				c0-0.56-0.17-0.95-0.5-1.2c-0.34-0.24-0.8-0.46-1.41-0.64L74.96,31.41z"/>
			<path class="st1" d="M88.42,25.03H86.1c-0.07-0.3-0.12-0.62-0.16-0.95c-0.03-0.34-0.05-0.65-0.05-0.95
				c0-0.62,0.07-1.24,0.21-1.84h7.15v17.94c-0.83,0.14-1.64,0.21-2.43,0.21c-0.76,0-1.56-0.07-2.39-0.21V25.03z M87.69,18.26
				c-0.14-0.79-0.21-1.56-0.21-2.32c0-0.74,0.07-1.51,0.21-2.32c0.39-0.07,0.82-0.12,1.27-0.16s0.86-0.05,1.23-0.05
				c0.39,0,0.82,0.02,1.28,0.05c0.46,0.03,0.89,0.09,1.28,0.16c0.07,0.39,0.12,0.78,0.14,1.16c0.02,0.38,0.03,0.77,0.03,1.16
				c0,0.37-0.01,0.75-0.03,1.15c-0.02,0.39-0.07,0.79-0.14,1.18c-0.39,0.07-0.82,0.12-1.27,0.14c-0.45,0.02-0.87,0.03-1.27,0.03
				c-0.37,0-0.79-0.01-1.25-0.03C88.51,18.38,88.09,18.33,87.69,18.26z"/>
			<path class="st1" d="M98.59,25.03h-2.26l-0.17-0.69l6.49-8.29h0.8v5.24h4.2c0.07,0.35,0.12,0.66,0.14,0.94
				c0.02,0.28,0.03,0.57,0.03,0.87c0,0.32-0.01,0.64-0.03,0.94c-0.02,0.3-0.07,0.64-0.14,1.01h-4.2v7.04c0,0.72,0.06,1.3,0.17,1.73
				c0.12,0.44,0.28,0.79,0.5,1.04c0.22,0.25,0.49,0.43,0.82,0.52c0.32,0.09,0.71,0.14,1.14,0.14c0.35,0,0.69-0.03,1.02-0.09
				c0.34-0.06,0.63-0.11,0.88-0.16c0.16,0.44,0.28,0.9,0.35,1.37c0.07,0.47,0.1,0.9,0.1,1.27c0,0.25-0.01,0.47-0.02,0.64
				c-0.01,0.17-0.03,0.34-0.05,0.5c-1.06,0.25-2.16,0.38-3.3,0.38c-2.11,0-3.71-0.49-4.82-1.47c-1.11-0.98-1.67-2.58-1.67-4.81
				V25.03z"/>
			<path class="st1" d="M118.99,39.63c-1.46,0-2.72-0.24-3.8-0.71c-1.08-0.47-1.97-1.13-2.67-1.98c-0.71-0.84-1.24-1.83-1.6-2.97
				c-0.36-1.13-0.54-2.36-0.54-3.68s0.18-2.56,0.54-3.71c0.36-1.16,0.89-2.16,1.6-3c0.71-0.84,1.6-1.51,2.67-2
				c1.08-0.49,2.34-0.73,3.8-0.73c1.46,0,2.73,0.24,3.82,0.73c1.09,0.49,1.99,1.15,2.71,2c0.72,0.84,1.25,1.84,1.6,3
				c0.35,1.16,0.52,2.39,0.52,3.71s-0.17,2.54-0.52,3.68c-0.35,1.13-0.88,2.12-1.6,2.97c-0.72,0.84-1.62,1.5-2.71,1.98
				C121.72,39.39,120.45,39.63,118.99,39.63z M118.99,35.88c1.3,0,2.23-0.48,2.79-1.44c0.57-0.96,0.85-2.34,0.85-4.15
				s-0.28-3.19-0.85-4.15c-0.57-0.96-1.5-1.44-2.79-1.44c-1.27,0-2.19,0.48-2.76,1.44c-0.57,0.96-0.85,2.34-0.85,4.15
				s0.28,3.19,0.85,4.15C116.8,35.41,117.72,35.88,118.99,35.88z"/>
			<path class="st1" d="M131.51,21.28c0.35-0.07,0.68-0.12,0.99-0.16c0.31-0.03,0.65-0.05,1.02-0.05c0.35,0,0.69,0.02,1.02,0.07
				c0.34,0.05,0.66,0.1,0.99,0.17c0.07,0.12,0.13,0.28,0.19,0.5c0.06,0.22,0.11,0.45,0.16,0.69c0.05,0.24,0.09,0.49,0.12,0.73
				c0.03,0.24,0.06,0.45,0.09,0.61c0.51-0.72,1.13-1.36,1.87-1.93c0.74-0.57,1.67-0.85,2.78-0.85c0.23,0,0.5,0.01,0.8,0.03
				c0.3,0.02,0.52,0.06,0.66,0.1c0.05,0.23,0.08,0.5,0.1,0.8c0.02,0.3,0.03,0.61,0.03,0.94c0,0.39-0.02,0.82-0.05,1.28
				c-0.03,0.46-0.1,0.9-0.19,1.32c-0.25-0.05-0.54-0.07-0.85-0.07c-0.31,0-0.5,0-0.57,0c-0.39,0-0.83,0.04-1.32,0.12
				c-0.49,0.08-0.95,0.29-1.39,0.64c-0.44,0.35-0.8,0.87-1.09,1.56c-0.29,0.69-0.43,1.67-0.43,2.91v8.54
				c-0.42,0.07-0.83,0.12-1.25,0.14c-0.42,0.02-0.82,0.03-1.21,0.03c-0.39,0-0.79-0.01-1.2-0.03c-0.4-0.02-0.83-0.07-1.27-0.14
				V21.28z"/>
			<path class="st1" d="M143.97,38.8l8.08-13.74h-6.87c-0.07-0.35-0.12-0.68-0.14-1.01c-0.02-0.32-0.03-0.65-0.03-0.97
				c0-0.3,0.01-0.6,0.03-0.88c0.02-0.29,0.07-0.6,0.14-0.92h14.12l0.17,0.42l-8.22,13.74h7.63c0.07,0.35,0.12,0.68,0.14,1.01
				c0.02,0.32,0.03,0.65,0.03,0.97c0,0.3-0.01,0.6-0.03,0.88c-0.02,0.29-0.07,0.6-0.14,0.92h-14.64L143.97,38.8z"/>
			<path class="st1" d="M162.6,39.22c-0.14-0.86-0.21-1.7-0.21-2.53c0-0.83,0.07-1.69,0.21-2.57c0.86-0.14,1.7-0.21,2.53-0.21
				c0.83,0,1.69,0.07,2.57,0.21c0.14,0.88,0.21,1.72,0.21,2.53c0,0.86-0.07,1.71-0.21,2.57c-0.88,0.14-1.72,0.21-2.53,0.21
				C164.31,39.42,163.46,39.35,162.6,39.22z"/>
			<path class="st1" d="M173.56,25.03h-2.32c-0.07-0.3-0.12-0.62-0.16-0.95c-0.03-0.34-0.05-0.65-0.05-0.95
				c0-0.62,0.07-1.24,0.21-1.84h7.15v17.94c-0.83,0.14-1.64,0.21-2.43,0.21c-0.76,0-1.56-0.07-2.39-0.21V25.03z M172.83,18.26
				c-0.14-0.79-0.21-1.56-0.21-2.32c0-0.74,0.07-1.51,0.21-2.32c0.39-0.07,0.82-0.12,1.27-0.16c0.45-0.03,0.86-0.05,1.23-0.05
				c0.39,0,0.82,0.02,1.28,0.05c0.46,0.03,0.89,0.09,1.28,0.16c0.07,0.39,0.12,0.78,0.14,1.16c0.02,0.38,0.03,0.77,0.03,1.16
				c0,0.37-0.01,0.75-0.03,1.15c-0.02,0.39-0.07,0.79-0.14,1.18c-0.39,0.07-0.82,0.12-1.27,0.14c-0.45,0.02-0.87,0.03-1.27,0.03
				c-0.37,0-0.79-0.01-1.25-0.03C173.66,18.38,173.23,18.33,172.83,18.26z"/>
			<path class="st1" d="M190.84,39.63c-1.46,0-2.72-0.24-3.8-0.71c-1.08-0.47-1.97-1.13-2.67-1.98c-0.71-0.84-1.24-1.83-1.6-2.97
				c-0.36-1.13-0.54-2.36-0.54-3.68s0.18-2.56,0.54-3.71c0.36-1.16,0.89-2.16,1.6-3c0.71-0.84,1.6-1.51,2.67-2
				c1.08-0.49,2.34-0.73,3.8-0.73c1.46,0,2.73,0.24,3.82,0.73c1.09,0.49,1.99,1.15,2.71,2c0.72,0.84,1.25,1.84,1.6,3
				c0.35,1.16,0.52,2.39,0.52,3.71s-0.17,2.54-0.52,3.68c-0.35,1.13-0.88,2.12-1.6,2.97c-0.72,0.84-1.62,1.5-2.71,1.98
				C193.57,39.39,192.3,39.63,190.84,39.63z M190.84,35.88c1.3,0,2.23-0.48,2.79-1.44c0.57-0.96,0.85-2.34,0.85-4.15
				s-0.28-3.19-0.85-4.15c-0.57-0.96-1.5-1.44-2.79-1.44c-1.27,0-2.19,0.48-2.76,1.44c-0.57,0.96-0.85,2.34-0.85,4.15
				s0.28,3.19,0.85,4.15C188.65,35.41,189.57,35.88,190.84,35.88z"/>
		</g>
		<g>
			<g>
				<path class="st0" d="M1.63,14.49L19.7,46.43c0.42,0.74,1.49,0.71,1.87-0.04l5.44-10.15c0.52-1.04,0.51-2.27-0.03-3.3
					l-10.6-18.66c-0.59-1.12-1.76-1.81-3.02-1.8l-10.75,0.3C1.74,12.79,1.2,13.73,1.63,14.49z"/>
				<path class="st0" d="M29.49,5.69c-4.7,0-8.52,3.79-8.56,8.49c-0.01,1.76,0.51,3.39,1.4,4.76l6.64,11.85
					c0.23,0.4,0.81,0.4,1.03,0l6.71-11.99l0.44-0.78l0-0.01c0.55-1.12,0.86-2.37,0.87-3.7C38.07,9.57,34.22,5.69,29.49,5.69z
					 M29.43,20.71c-3.58-0.03-6.45-2.95-6.43-6.52c0.03-3.57,2.95-6.45,6.52-6.43c3.58,0.03,6.45,2.95,6.43,6.52
					C35.93,17.86,33.01,20.74,29.43,20.71z"/>
			</g>
		</g>
	</g>
</g>
</svg>
