<?xml version="1.0" encoding="utf-8"?>
<!-- Generator: Adobe Illustrator 24.2.1, SVG Export Plug-In . SVG Version: 6.00 Build 0)  -->
<svg version="1.1" id="Layer_1" xmlns="http://www.w3.org/2000/svg" xmlns:xlink="http://www.w3.org/1999/xlink" x="0px" y="0px"
	 viewBox="0 0 24 24" style="enable-background:new 0 0 24 24;" xml:space="preserve">
<style type="text/css">
	.st0{fill:#07C396;}
</style>
<path class="st0" d="M17,15.2v6.9c0,0.3-0.2,0.5-0.5,0.5c-0.1,0-0.2,0-0.3-0.1L12,20l-4.2,2.5c-0.2,0.1-0.5,0.1-0.7-0.2
	C7,22.3,7,22.2,7,22.1v-6.9C5.2,13.8,4,11.5,4,9c0-4.4,3.6-8,8-8c4.4,0,8,3.6,8,8C20,11.5,18.8,13.8,17,15.2z M12,15
	c3.3,0,6-2.7,6-6c0-3.3-2.7-6-6-6C8.7,3,6,5.7,6,9C6,12.3,8.7,15,12,15z M12,13c-2.2,0-4-1.8-4-4c0-2.2,1.8-4,4-4c2.2,0,4,1.8,4,4
	C16,11.2,14.2,13,12,13z"/>
</svg>
