<?xml version="1.0" encoding="utf-8"?>
<!-- Generator: Adobe Illustrator 24.2.1, SVG Export Plug-In . SVG Version: 6.00 Build 0)  -->
<svg version="1.1" id="Layer_1" xmlns="http://www.w3.org/2000/svg" xmlns:xlink="http://www.w3.org/1999/xlink" x="0px" y="0px"
	 viewBox="0 0 62 62" style="enable-background:new 0 0 62 62;" xml:space="preserve">
<style type="text/css">
	.st0{fill:#0088F7;}
	.st1{fill:none;stroke:#898989;stroke-miterlimit:10;}
	.st2{fill:#76CEFF;}
	.st3{fill:#FFFFFF;}
</style>
<g>
	<path class="st3" d="M61,32.4c0,11.5-7,20.8-16.3,24.4c0,0,0,0-0.1,0c0,0,0,0,0.1,0c4.8-4.4,7.2-11.2,7.2-18.9
		c0-13.2-9.1-24-20.2-24c-7.5,0-14.1,4.9-17.6,12.1l0,0l0,0L14,26C16.6,14.5,25.6,6.5,36.9,6.5C50.2,6.5,61,17.8,61,32.4z"/>
	<path class="st3" d="M1,30.7C0.7,19.1,7.3,9.6,16.4,5.8c0,0,0,0,0,0c0,0,0,0,0,0.1c-4.5,4.5-6.7,11.3-6.6,19.1
		c0.3,13.3,9.4,23.8,20.3,23.6C37.4,48.3,43.7,43.3,47,36l0,0l0,0L47,36c-2.3,11.6-10.9,19.8-21.9,20.1C12.1,56.4,1.3,45.3,1,30.7z"
		/>
	<line class="st3" x1="14.1" y1="26" x2="14.1" y2="26.1"/>
	<path class="st3" d="M49.7,39.5c0,9.6-6.6,17.8-15.8,21c-5.3,1.8-11.2,1.3-16-1.6c-0.8-0.5-1.6-1.1-2.4-1.7c-0.4-0.3-1.2-1-1-1
		c4.8,3,13.6,2.9,18.9,0.9c7.2-2.8,15.3-10.9,15.3-20.5c0-1.8-0.4-3.6-0.8-5.3c-0.1-0.4,0-0.3,0.1-0.3c0.5,1.1,0.9,2.1,1.2,3.3
		C49.5,35.8,49.7,37.6,49.7,39.5z"/>
	<path class="st3" d="M11.9,19.6C13.2,10,20.8,2.8,30.3,0.8C35.8-0.3,41.7,1,46,4.6c0.7,0.6,1.5,1.3,2.2,2c0.4,0.4,1.1,1.2,0.9,1.2
		C44.6,4.1,36,3.1,30.4,4.4c-7.5,1.8-16.6,8.8-17.9,18.3c-0.2,1.8-0.1,3.6,0.1,5.4c0.1,0.4,0,0.3-0.1,0.3c-0.3-1.1-0.6-2.2-0.7-3.4
		C11.6,23.2,11.6,21.4,11.9,19.6z"/>
</g>
</svg>
