<svg id="Layer_1" data-name="Layer 1" xmlns="http://www.w3.org/2000/svg" viewBox="0 0 307.2 409.44" height="24" width="24" style="opacity:0.5;"><path d="M386.4,580.78V420.84c0-10.83,3.09-13.88,14-13.88,5.49,0,11-.09,16.49,0,6.34.14,10.47,4.34,10.38,10.32s-4,9.72-10.19,10C407,427.7,407,427.7,407,437.82q0,145.44-.12,290.88c0,4.76,1,6,5.92,6q127.43-.25,254.87,0c4.34,0,5.48-.94,5.47-5.41q-.23-148.44,0-296.88c0-4.1-.94-5.74-5.16-5.15a26,26,0,0,1-6.48-.08,9.76,9.76,0,0,1-8.75-10.33c.12-5.11,3.81-9.51,8.87-9.71,7.49-.29,15-.25,22.48,0,4.86.15,8.36,3.49,9.24,8.29a30.11,30.11,0,0,1,.28,5.46q0,159.95,0,319.87c0,11.17-3.08,14.26-14.17,14.26H400.07c-10.37,0-13.67-3.32-13.67-13.74Z" transform="translate(-386.4 -345.52)"/><path d="M632,377.81c0-8.17-3.69-11.76-12-11.77-15.66,0-31.32-.08-47,.06-2.87,0-4.2-.85-5.54-3.48-5.72-11.21-15.19-17.21-27.72-17.1-12.29.1-21.63,6-27.15,17.12-1.33,2.67-2.78,3.48-5.64,3.46-15.65-.14-31.31-.09-47-.06-8.59,0-12.13,3.54-12.14,12.1q0,28.74,0,57.47c0,8.67,3.72,12.34,12.5,12.35q39.74,0,79.46,0,40,0,80,0c8.43,0,12.17-3.8,12.17-12.17Q632.07,406.79,632,377.81ZM611.83,391c-.3,10.65-.24,21.32,0,32,.07,3.45-.83,4.48-4.4,4.45-22.64-.17-45.28-.08-67.92-.09-22.14,0-44.28-.11-66.42.11-4.06,0-5-1.2-4.87-5,.26-10.16.3-20.33,0-30.48-.13-4.23.74-5.71,5.36-5.6,14.31.35,28.64.14,43,.12,9.44,0,12-2.29,13.42-11.56a10.17,10.17,0,0,1,20.17.05c1.34,9.23,4,11.5,13.47,11.51,14.49,0,29,.12,43.46-.07C610.62,386.3,611.94,387,611.83,391Z" transform="translate(-386.4 -345.52)"/><path d="M581.12,673c13,0,26,0,39,0,7.53,0,12,4,12,10.34s-4.57,10.22-12.1,10.23q-39,0-77.89,0c-7.78,0-12.34-4-12.19-10.63.14-6.3,4.62-9.93,12.32-9.94Q561.65,673,581.12,673Z" transform="translate(-386.4 -345.52)"/><path d="M581.17,591.13c13.31,0,26.62-.12,39.93,0,8.83.1,13.87,8.49,9.53,15.54a10.21,10.21,0,0,1-9.21,5q-40.44,0-80.87,0c-6.35,0-10.61-4.28-10.69-10.11-.08-6.09,4.22-10.37,10.87-10.42C554.21,591.06,567.69,591.13,581.17,591.13Z" transform="translate(-386.4 -345.52)"/><path d="M581,529.85H542.52c-8,0-12.59-3.73-12.67-10.2s4.54-10.44,12.43-10.45q38.64,0,77.28,0c2.87,0,5.7.15,8.1,1.91a10.07,10.07,0,0,1,4,11.45c-1.16,4.41-5.4,7.26-10.73,7.29C607.63,529.9,594.31,529.85,581,529.85Z" transform="translate(-386.4 -345.52)"/><path d="M475.78,676.36c4.67-9.28,8.89-17.7,13.14-26.1,3.44-6.78,8.84-9.07,14.5-6.22s7,8.71,3.69,15.39q-9.17,18.48-18.42,36.94c-4.49,8.89-11.61,9.94-18.73,2.84-6.12-6.1-12.27-12.18-18.33-18.34-4.63-4.71-4.89-10.9-.75-15.07s10.41-4,15.1.43c1.69,1.6,3.31,3.26,4.93,4.94S473.87,674.32,475.78,676.36Z" transform="translate(-386.4 -345.52)"/><path d="M475.81,512.52c4.61-9.16,8.9-17.73,13.22-26.29,3.22-6.37,8.68-8.7,14.18-6.11s7.2,8.77,4,15.27q-9.29,18.69-18.63,37.35c-4.33,8.59-11.54,9.71-18.4,2.89q-9-9-18-18c-5.22-5.27-5.62-11.33-1.1-15.76s10.43-3.89,15.76,1.42C469.73,506.19,472.56,509.17,475.81,512.52Z" transform="translate(-386.4 -345.52)"/><path d="M475.72,594.48c4.69-9.3,8.92-17.73,13.19-26.14,3.39-6.7,9-9,14.54-6.16s7,8.64,3.61,15.42q-9.21,18.52-18.5,37c-4.36,8.62-11.66,9.75-18.46,3-6.13-6.11-12.29-12.21-18.35-18.38-4.71-4.79-5.05-10.84-1-15.11,4.22-4.45,10.48-4.28,15.48.45,1.57,1.49,3.09,3,4.59,4.59S473.75,592.31,475.72,594.48Z" transform="translate(-386.4 -345.52)"/></svg>