<svg id="Layer_1" data-name="Layer 1" xmlns="http://www.w3.org/2000/svg" viewBox="0 0 105.08 125.63" height="24" width="24" style="opacity:0.5;"><path d="M582,547.5a9.06,9.06,0,0,0-4.39.1c-3.24.91-5.71,3-8,5.32a78.06,78.06,0,0,0-5.78,7c-.48.63-.78.7-1.35.08a8.31,8.31,0,0,0-4-2.3,20.36,20.36,0,0,0-9.15-.31,29.4,29.4,0,0,1-13.15-1c-2.15-.62-4.27-1.34-6.44-1.86-5.42-1.29-10.54-.68-15.24,2.56-2.17,1.51-4.3,3-6.34,4.73-1.2,1-1.2,1-2-.33-1.72-3-4.67-3.85-7.65-2.18q-4.14,2.33-8.23,4.69a5.11,5.11,0,0,0-2,7.3c1,1.89,2.13,3.76,3.2,5.63q6.54,11.52,13.09,23a5.11,5.11,0,0,0,7.1,2.16c3-1.65,6-3.36,9-5.1a4.84,4.84,0,0,0,2.33-5.55c-.28-1.09,0-1.3,1-1.29,4.75,0,9.51,0,14.27,0,4.24,0,8.48-.06,12.72,0a15.14,15.14,0,0,0,7.46-1.87,27.52,27.52,0,0,0,3.76-2.35c8.2-6.09,14.65-13.77,20.1-22.33a29.73,29.73,0,0,0,4.17-8.86C587.37,550.91,585.82,548.35,582,547.5Zm-66.81,46-4.8,2.72-.73.38c-.51-.07-.59-.52-.77-.85l-9.62-16.87c-1.72-3-3.42-6.05-5.17-9.06-.41-.69-.39-1.08.38-1.49,1.9-1,3.78-2.08,5.62-3.22.84-.52,1.23-.41,1.72.46q7.07,12.53,14.2,25C517,592.41,517,592.41,515.14,593.47Zm65.21-38.65a57.57,57.57,0,0,1-8.68,13.74,65.62,65.62,0,0,1-14,13.56,12.36,12.36,0,0,1-7.63,2.33c-4.64-.16-9.28,0-13.92,0-5.28,0-10.55,0-15.83,0a1.69,1.69,0,0,1-1.7-1q-4.07-7.28-8.23-14.49a1.12,1.12,0,0,1,.3-1.71c2.13-1.75,4.33-3.41,6.55-5,3.62-2.66,7.54-3.05,11.74-1.91,3.43.93,6.76,2.2,10.29,2.78a34.08,34.08,0,0,0,10.62.09,23.54,23.54,0,0,1,5.75-.13,4.33,4.33,0,0,1,2.63,1c.65.61.77,1.13,0,1.85-3.73,3.28-8.12,4-12.88,3.73-3.31-.18-6.63-.06-10-.09-.63,0-1,.19-1,.88,0,1.36-.06,2.72-.13,4.07,0,.61.17.9.79.91,5.84.06,11.69.59,17.48-.39A20.66,20.66,0,0,0,564.63,568c3.42-3.81,6.24-8.12,9.88-11.74a12.84,12.84,0,0,1,2.59-2.12,8,8,0,0,1,1.84-.84c.56-.18,1.31-.37,1.71.1S580.55,554.35,580.35,554.82Zm-69.69,29.77a2.71,2.71,0,0,0-2.27-1.39,2.9,2.9,0,0,0-2.7,4.3c.87,1.62,1.83,3.19,2.8,4.74a2.9,2.9,0,1,0,5-2.92C512.59,587.71,511.62,586.15,510.66,584.59Z" transform="translate(-487.45 -477.18)"/><path d="M519,550.6a24.06,24.06,0,0,0-5,2.18c-.64.36-.85-.25-1.13-.57a44.24,44.24,0,0,1-9.76-18.89,45.36,45.36,0,1,1,84.15,10.57c-.49.94-.89,1.21-1.84.53a7,7,0,0,0-3.11-1.19c-1.07-.15-1.11-.51-.62-1.37a37.27,37.27,0,0,0,4.71-14.12c1.46-12.37-2-23.21-10.51-32.3A38,38,0,0,0,547.71,483a39.45,39.45,0,0,0-39.58,33.41c-1.93,12.64,1.62,23.72,10.21,33.19.18.21.37.42.54.64C518.93,550.3,518.94,550.39,519,550.6Z" transform="translate(-487.45 -477.18)"/><path d="M557.23,521a68.69,68.69,0,0,0-6.44-2.59c-.48-.18-1-.29-1-1q0-5.58,0-11.16c0-.54.24-.65.75-.63a5.7,5.7,0,0,1,5.35,4.05c.16.5.38.74.91.73,1.56,0,3.12,0,4.68,0,.65,0,.82-.27.72-.89a9.14,9.14,0,0,0-5-7.29,19.77,19.77,0,0,0-6.42-1.83c-.59-.08-.94-.23-1-.92s.45-1.9-.32-2.35S547.81,497,547,497h-.12c-2.41,0-2.17-.23-2.13,2.09,0,.9-.24,1.28-1.19,1.34a17.26,17.26,0,0,0-5.69,1.38c-4.85,2-7.29,6.13-6.5,11,.55,3.41,2.74,5.6,5.61,7.21a44.63,44.63,0,0,0,6.78,2.72,1.26,1.26,0,0,1,1,1.4c0,2,0,3.92,0,5.88s0,4,0,6c0,.42.1.86-.6.93a6.61,6.61,0,0,1-6.78-4.43c-.17-.56-.41-.79-1-.78-1.44,0-2.88,0-4.32,0-.91,0-1.19.31-1.13,1.19a9,9,0,0,0,5.25,8,18.69,18.69,0,0,0,7.43,1.68c.72,0,1,.24,1.12,1,.22,2.31.26,2.31,2.68,2.31h.36c2.36,0,2.09.18,2-2.05,0-1,.37-1.37,1.34-1.49a16.38,16.38,0,0,0,6.87-2.33,10.79,10.79,0,0,0,5.36-10.17C563.17,525.6,560.91,522.86,557.23,521Zm-12.52-10.09c0,1.47,0,2.95,0,4.42,0,.74-.2,1-1,.76a15.13,15.13,0,0,1-3.91-1.76,4.25,4.25,0,0,1,.11-7.41,10.22,10.22,0,0,1,3.79-1.37c.74-.14,1,.06,1,.82C544.69,507.9,544.71,509.42,544.71,510.93Zm9.77,24.32a11.51,11.51,0,0,1-3.88,1.52c-.58.14-.81,0-.81-.62V525.86c0-.44.09-.83.68-.66,2,.59,4,1.31,5.41,3.09a4.38,4.38,0,0,1,1,2.56A4.9,4.9,0,0,1,554.48,535.25Z" transform="translate(-487.45 -477.18)"/><path d="M512.53,593.31a2.88,2.88,0,0,1-4-1.07c-1-1.55-1.93-3.12-2.8-4.74a2.9,2.9,0,0,1,2.7-4.3,2.71,2.71,0,0,1,2.27,1.39c1,1.56,1.93,3.12,2.83,4.73A2.89,2.89,0,0,1,512.53,593.31Z" transform="translate(-487.45 -477.18)"/><path d="M512.53,593.31a2.88,2.88,0,0,1-4-1.07c-1-1.55-1.93-3.12-2.8-4.74a2.9,2.9,0,0,1,2.7-4.3,2.71,2.71,0,0,1,2.27,1.39c1,1.56,1.93,3.12,2.83,4.73A2.89,2.89,0,0,1,512.53,593.31Z" transform="translate(-487.45 -477.18)"/></svg>